<svg height="512" viewBox="0 0 512 512" width="512" xmlns="http://www.w3.org/2000/svg"><g><path d="m104 368a24 24 0 1 0 24 24 24.027 24.027 0 0 0 -24-24zm0 32a8 8 0 1 1 8-8 8.009 8.009 0 0 1 -8 8z"/><path d="m408 368a24 24 0 1 0 24 24 24.027 24.027 0 0 0 -24-24zm0 32a8 8 0 1 1 8-8 8.009 8.009 0 0 1 -8 8z"/><path d="m502.73 259.67-72-112a8 8 0 0 0 -6.73-3.67h-16v-16a8 8 0 0 0 -8-8v-16a24 24 0 0 0 -48 0v16a8 8 0 0 0 -8 8v16h-16v-44a28.031 28.031 0 0 0 -28-28h-264a28.031 28.031 0 0 0 -28 28v292a8 8 0 0 0 8 8h32.58a55.994 55.994 0 0 0 110.84 0h193.16a55.994 55.994 0 0 0 110.84 0h32.58a8 8 0 0 0 8-8v-128a8.018 8.018 0 0 0 -1.27-4.33zm-398.73 172.33a40 40 0 1 1 40-40 40.04 40.04 0 0 1 -40 40zm208-48h-152.58a55.994 55.994 0 0 0 -110.84 0h-24.58v-80h288zm0-96h-288v-188a12.01 12.01 0 0 1 12-12h264a12.01 12.01 0 0 1 12 12zm123.06-104 46.29 72h-113.35v-72zm-67.06-80a8 8 0 0 1 16 0v16h-16zm-8 32h32v8h-32zm48 296a40 40 0 1 1 40-40 40.04 40.04 0 0 1 -40 40zm80-112h-16a8 8 0 0 1 0-16h16zm0-32h-16a24 24 0 0 0 0 48h16v48h-24.58a55.994 55.994 0 0 0 -110.84 0h-24.58v-224h91.63l5.15 8h-64.78a8 8 0 0 0 -8 8v88a8 8 0 0 0 8 8h128z"/><path d="m384 288h-24a8 8 0 0 0 0 16h24a8 8 0 0 0 0-16z"/><path d="m216 336h64a8 8 0 0 0 0-16h-64a8 8 0 0 0 0 16z"/><path d="m280 344h-24a8 8 0 0 0 0 16h24a8 8 0 0 0 0-16z"/><path d="m88 216h48v48a8 8 0 0 0 8 8h32a8 8 0 0 0 8-8v-48h48a8 8 0 0 0 8-8v-32a8 8 0 0 0 -8-8h-48v-48a8 8 0 0 0 -8-8h-32a8 8 0 0 0 -8 8v48h-48a8 8 0 0 0 -8 8v32a8 8 0 0 0 8 8zm8-32h48a8 8 0 0 0 8-8v-48h16v48a8 8 0 0 0 8 8h48v16h-48a8 8 0 0 0 -8 8v48h-16v-48a8 8 0 0 0 -8-8h-48z"/></g></svg>