<?xml version="1.0" encoding="UTF-8"?>
<svg xmlns="http://www.w3.org/2000/svg" width="512" height="512" viewBox="0 0 512 512"><g><circle cx="184" cy="152" r="8"/><circle cx="264" cy="152" r="8"/><path d="M340.15,297.7,272,281.66V272a8,8,0,0,0,8-8v-4.12A72.287,72.287,0,0,0,312,200h8a24.032,24.032,0,0,0,24-24V144a24.031,24.031,0,0,0-16-22.62V96A88.1,88.1,0,0,0,240,8H208a88.1,88.1,0,0,0-88,88v25.38A24.031,24.031,0,0,0,104,144v32a24.032,24.032,0,0,0,24,24h8a72.287,72.287,0,0,0,32,59.88V264a8,8,0,0,0,8,8v9.66L107.85,297.7A87.661,87.661,0,0,0,40,383.36V496a8,8,0,0,0,8,8H400a8,8,0,0,0,8-8V383.36A87.661,87.661,0,0,0,340.15,297.7ZM296,200a56.2,56.2,0,0,1-16,39.17V186.12l16-28Zm32-56v32a8.011,8.011,0,0,1-8,8h-8V136h8A8.011,8.011,0,0,1,328,144ZM136,184h-8a8.011,8.011,0,0,1-8-8V144a8.011,8.011,0,0,1,8-8h8Zm0-64V96a72.083,72.083,0,0,1,72-72h32a72.083,72.083,0,0,1,72,72v24h-8c-14.36,0-33.72-29.36-40.84-43.58a8,8,0,0,0-14.75,1.05c-.62,1.87-6.15,12-53.84,27.91-23.64,7.88-46.81,13.51-51.5,14.62Zm32,119.17A56.2,56.2,0,0,1,152,200V162.42l16,24ZM152.41,134.19c9.5-2.36,27.94-7.21,47.12-13.6,31.2-10.4,47.08-19.15,55.36-26.23,2.58,4.25,5.88,9.33,9.71,14.44,9.24,12.31,18.34,20.48,27.2,24.43l-23.98,41.96-42.5-7.08a7.8,7.8,0,0,0-2.64,0l-42.89,7.15ZM184,256V190.78l40-6.67,40,6.67V256Zm72,16v16c0,13.23-14.35,24-32,24s-32-10.77-32-24V272Zm-78.55,25.76C182.69,315.12,201.57,328,224,328s41.31-12.88,46.55-30.24l8.27,1.95C276.64,324.45,252.9,344,224,344s-52.64-19.55-54.82-44.29ZM392,488H344V400a8,8,0,0,0-16,0v88H120V400a8,8,0,0,0-16,0v88H56V383.36a71.71,71.71,0,0,1,55.51-70.08l41.98-9.88C157.57,335.21,187.63,360,224,360s66.43-24.79,70.51-56.6l41.98,9.88A71.71,71.71,0,0,1,392,383.36Z"/><path d="M424,232a24,24,0,1,0,24,24A24.027,24.027,0,0,0,424,232Zm0,32a8,8,0,1,1,8-8A8.009,8.009,0,0,1,424,264Z"/><path d="M448,214.43V32a24,24,0,0,0-48,0v8h-8a8,8,0,0,0,0,16h8V72h-8a8,8,0,0,0,0,16h8v16h-8a8,8,0,0,0,0,16h8v16h-8a8,8,0,0,0,0,16h8v16h-8a8,8,0,0,0,0,16h8v30.44a48,48,0,0,0,20.57,89.44q1.755.12,3.48.12a47.527,47.527,0,0,0,32.68-12.89A48,48,0,0,0,448,214.43Zm-2.18,64.98a32,32,0,0,1-53.77-21.53,32.191,32.191,0,0,1,19.15-31.21,7.988,7.988,0,0,0,4.8-7.33V32a8,8,0,0,1,16,0V219.34a7.988,7.988,0,0,0,4.8,7.33,32,32,0,0,1,9.02,52.74Z"/></g></svg>
