<?xml version="1.0" encoding="UTF-8"?>
<svg xmlns="http://www.w3.org/2000/svg" width="512" height="512" viewBox="0 0 512 512"><g><circle cx="216" cy="152" r="8"/><circle cx="296" cy="152" r="8"/><path d="M372.15,297.7,304,281.66V272a8,8,0,0,0,8-8v-4.12A72.287,72.287,0,0,0,344,200h8a24.032,24.032,0,0,0,24-24V144a24.031,24.031,0,0,0-16-22.62V96A88.1,88.1,0,0,0,272,8H240a88.1,88.1,0,0,0-88,88v25.38A24.031,24.031,0,0,0,136,144v32a24.032,24.032,0,0,0,24,24h8a72.287,72.287,0,0,0,32,59.88V264a8,8,0,0,0,8,8v9.66L139.85,297.7A87.661,87.661,0,0,0,72,383.36V496a8,8,0,0,0,8,8H432a8,8,0,0,0,8-8V383.36A87.661,87.661,0,0,0,372.15,297.7ZM328,200a56.2,56.2,0,0,1-16,39.17V186.12l16-28Zm32-56v32a8.011,8.011,0,0,1-8,8h-8V136h8A8.011,8.011,0,0,1,360,144ZM168,184h-8a8.011,8.011,0,0,1-8-8V144a8.011,8.011,0,0,1,8-8h8Zm0-64V96a72.083,72.083,0,0,1,72-72h32a72.083,72.083,0,0,1,72,72v24h-4.69L301.66,82.34a8.009,8.009,0,0,0-8.63-1.77L256,95.38,218.97,80.57a8.009,8.009,0,0,0-8.63,1.77L172.69,120Zm32,119.17A56.2,56.2,0,0,1,184,200V162.42l16,24ZM184,133.58v-2.27l33.93-33.92,35.1,14.04a8.023,8.023,0,0,0,5.94,0l35.1-14.04,31.95,31.95-26.2,45.85-42.5-7.08a7.8,7.8,0,0,0-2.64,0l-42.89,7.15ZM216,256V190.78l40-6.67,40,6.67V256Zm72,16v16c0,13.23-14.35,24-32,24s-32-10.77-32-24V272Zm-78.55,25.76C214.69,315.12,233.57,328,256,328s41.31-12.88,46.55-30.24l8.27,1.95C308.64,324.45,284.9,344,256,344s-52.64-19.55-54.82-44.29ZM424,488H376V400a8,8,0,0,0-16,0v88H152V400a8,8,0,0,0-16,0v88H88V383.36a71.71,71.71,0,0,1,55.51-70.08l41.98-9.88C189.57,335.21,219.63,360,256,360s66.43-24.79,70.51-56.6l41.98,9.88A71.71,71.71,0,0,1,424,383.36Z"/><path d="M344,400H296a8,8,0,0,0-8,8v64a8,8,0,0,0,8,8h48a8,8,0,0,0,8-8V408A8,8,0,0,0,344,400Zm-8,64H304V416h32Z"/></g></svg>
