<?xml version="1.0" encoding="UTF-8"?>
<svg xmlns="http://www.w3.org/2000/svg" width="512" height="512" viewBox="0 0 512 512"><g><path d="M436,104H400V72a48.051,48.051,0,0,0-48-48H336V16a8,8,0,0,0-8-8H184a8,8,0,0,0-8,8v8H160a48.051,48.051,0,0,0-48,48v32H76a28.031,28.031,0,0,0-28,28v24a28.031,28.031,0,0,0,28,28h4V424.33a48.051,48.051,0,0,0,48,48V496a8,8,0,0,0,8,8H376a8,8,0,0,0,8-8V472.33a48.051,48.051,0,0,0,48-48V184h4a28.031,28.031,0,0,0,28-28V132A28.031,28.031,0,0,0,436,104ZM192,24H320V40H192ZM128,72a32.042,32.042,0,0,1,32-32h16v8a8,8,0,0,0,8,8H328a8,8,0,0,0,8-8V40h16a32.042,32.042,0,0,1,32,32v32H128ZM368,488H144V472.33H368Zm48-63.67a32.042,32.042,0,0,1-32,32H128a32.042,32.042,0,0,1-32-32V184h48v16a8,8,0,0,0,8,8h32a8,8,0,0,0,8-8V184H320v16a8,8,0,0,0,8,8h32a8,8,0,0,0,8-8V184h48ZM160,192V160h16v32Zm176,0V160h16v32Zm112-36a12.01,12.01,0,0,1-12,12h-9.74a7.966,7.966,0,0,0-2.26-.33H368V152a8,8,0,0,0-8-8H328a8,8,0,0,0-8,8v16H192V152a8,8,0,0,0-8-8H152a8,8,0,0,0-8,8v15.67H88a7.966,7.966,0,0,0-2.26.33H76a12.01,12.01,0,0,1-12-12V132a12.01,12.01,0,0,1,12-12H436a12.01,12.01,0,0,1,12,12Z"/><path d="M352,240H160a8,8,0,0,0-8,8V396a28.032,28.032,0,0,0,28,28H332a28.032,28.032,0,0,0,28-28V248A8,8,0,0,0,352,240Zm-8,16v16H168V256ZM332,408H180a12.013,12.013,0,0,1-12-12V288H344V396A12.013,12.013,0,0,1,332,408Z"/></g></svg>
