<svg height="512" viewBox="0 0 512 512" width="512" xmlns="http://www.w3.org/2000/svg"><g><path d="m324 8h-136a28.031 28.031 0 0 0 -28 28v440a28.031 28.031 0 0 0 28 28h136a28.031 28.031 0 0 0 28-28v-440a28.031 28.031 0 0 0 -28-28zm12 468a12.01 12.01 0 0 1 -12 12h-136a12.01 12.01 0 0 1 -12-12v-100h160zm0-116h-160v-208h160zm0-224h-160v-100a12.01 12.01 0 0 1 12-12h136a12.01 12.01 0 0 1 12 12z"/><circle cx="256" cy="336" r="8"/><circle cx="224" cy="336" r="8"/><circle cx="192" cy="336" r="8"/><circle cx="320" cy="336" r="8"/><circle cx="288" cy="336" r="8"/><circle cx="240" cy="304" r="8"/><circle cx="208" cy="304" r="8"/><circle cx="272" cy="304" r="8"/><circle cx="304" cy="304" r="8"/><circle cx="256" cy="272" r="8"/><circle cx="224" cy="272" r="8"/><circle cx="192" cy="272" r="8"/><circle cx="320" cy="272" r="8"/><circle cx="288" cy="272" r="8"/><circle cx="240" cy="240" r="8"/><circle cx="208" cy="240" r="8"/><circle cx="272" cy="240" r="8"/><circle cx="304" cy="240" r="8"/><circle cx="256" cy="208" r="8"/><circle cx="224" cy="208" r="8"/><circle cx="192" cy="208" r="8"/><circle cx="320" cy="208" r="8"/><circle cx="288" cy="208" r="8"/><circle cx="240" cy="176" r="8"/><circle cx="208" cy="176" r="8"/><circle cx="272" cy="176" r="8"/><circle cx="304" cy="176" r="8"/></g></svg>