<svg height="512" viewBox="0 0 512 512" width="512" xmlns="http://www.w3.org/2000/svg"><g><path d="m208 280h48a8 8 0 0 0 8-8v-64a8 8 0 0 0 -8-8h-48a8 8 0 0 0 -8 8v64a8 8 0 0 0 8 8zm8-64h32v48h-32z"/><path d="m280 216h24a8 8 0 0 0 0-16h-24a8 8 0 0 0 0 16z"/><path d="m392 56h-72v-8a40.04 40.04 0 0 0 -40-40h-48a40.04 40.04 0 0 0 -40 40v8h-72a8 8 0 0 0 -8 8v352a8 8 0 0 0 8 8h104v32h-24a8 8 0 0 0 -8 8v32a8 8 0 0 0 8 8h112a8 8 0 0 0 8-8v-32a8 8 0 0 0 -8-8h-24v-32h104a8 8 0 0 0 8-8v-352a8 8 0 0 0 -8-8zm-184-8a24.032 24.032 0 0 1 24-24h48a24.032 24.032 0 0 1 24 24v8h-96zm96 424v16h-96v-16zm-32-68v52h-32v-52a28.031 28.031 0 0 0 -28-28h-40a12.01 12.01 0 0 1 -12-12v-52h192v52a12.01 12.01 0 0 1 -12 12h-40a28.031 28.031 0 0 0 -28 28zm80-220v112h-192v-112zm-192-16v-52a12.01 12.01 0 0 1 12-12h168a12.01 12.01 0 0 1 12 12v52zm224 240h-96v-4a12.01 12.01 0 0 1 12-12h40a28.031 28.031 0 0 0 28-28v-248a28.031 28.031 0 0 0 -28-28h-168a28.031 28.031 0 0 0 -28 28v248a28.031 28.031 0 0 0 28 28h40a12.01 12.01 0 0 1 12 12v4h-96v-336h256z"/></g></svg>