<?xml version="1.0" encoding="UTF-8"?>
<svg xmlns="http://www.w3.org/2000/svg" width="512" height="512" viewBox="0 0 512 512"><g><path d="M360.04,440.04H291.47a24.062,24.062,0,0,0-6.88-17.7l-65.04-70.63a24.064,24.064,0,0,0-17.66-7.75h-.05l-33.8.08H88V328a8,8,0,0,0-8-8H24a8,8,0,0,0-8,8V456a8,8,0,0,0,8,8H80a8,8,0,0,0,8-8V440.04h17.47a8.055,8.055,0,0,1,5.62,2.29l55.69,54.86a23.922,23.922,0,0,0,16.79,6.85H360.04a24.032,24.032,0,0,0,24-24v-16A24.025,24.025,0,0,0,360.04,440.04ZM72,448H32V336H72Zm296.04,32.04a8.011,8.011,0,0,1-8,8H183.57a7.991,7.991,0,0,1-5.59-2.27l-55.66-54.83a23.835,23.835,0,0,0-16.85-6.9H88.04v-64h80.01l33.82-.08h.02a8.009,8.009,0,0,1,5.88,2.58l65.15,70.74a2.608,2.608,0,0,0,.23.24,8.026,8.026,0,0,1,1.02,10.08,8.5,8.5,0,0,1-1.02,1.24l-11.31,11.31a8.015,8.015,0,0,1-11.32,0l-50.91-50.91a8,8,0,1,0-11.31,11.31l50.91,50.91a24,24,0,0,0,33.94,0l11.31-11.31c.04-.03.07-.08.11-.11h75.47a8,8,0,0,1,8,8Z"/><path d="M408,224H384V200a8,8,0,0,0-8-8H344a8,8,0,0,0-8,8v24H312a8,8,0,0,0-8,8v32a8,8,0,0,0,8,8h24v24a8,8,0,0,0,8,8h32a8,8,0,0,0,8-8V272h24a8,8,0,0,0,8-8V232A8,8,0,0,0,408,224Zm-8,32H376a8,8,0,0,0-8,8v24H352V264a8,8,0,0,0-8-8H320V240h24a8,8,0,0,0,8-8V208h16v24a8,8,0,0,0,8,8h24Z"/><path d="M360,160a88,88,0,1,0,88,88A88.1,88.1,0,0,0,360,160Zm0,160a72,72,0,1,1,72-72A72.081,72.081,0,0,1,360,320Z"/><path d="M366,10.712a8,8,0,0,0-12.006,0C348.689,16.738,224,159.125,224,232c0,74.991,61.01,136,136,136s136-61.009,136-136C496,159.125,371.311,16.738,366,10.712ZM360,352A120.136,120.136,0,0,1,240,232c0-27.22,21.6-72.094,62.448-129.773C325.733,69.353,349.269,40.913,360,28.27c10.716,12.622,34.2,41,57.473,73.845C458.378,159.848,480,204.762,480,232A120.136,120.136,0,0,1,360,352Z"/></g></svg>
