<?xml version="1.0" encoding="UTF-8"?>
<svg xmlns="http://www.w3.org/2000/svg" width="512" height="512" viewBox="0 0 512 512"><g><path d="M183,152a40,40,0,1,0-40-40A40.045,40.045,0,0,0,183,152Zm0-16a23.864,23.864,0,0,1-10.341-2.345l32-32A24,24,0,0,1,183,136Zm0-48a23.861,23.861,0,0,1,10.341,2.345l-32,32A24,24,0,0,1,183,88Z"/><path d="M328,72a40,40,0,1,0,40,40A40.045,40.045,0,0,0,328,72Zm0,16a23.861,23.861,0,0,1,10.341,2.345l-32,32A24,24,0,0,1,328,88Zm0,48a23.861,23.861,0,0,1-10.341-2.345l32-32A24,24,0,0,1,328,136Z"/><path d="M183,248a40,40,0,1,0-40-40A40.045,40.045,0,0,0,183,248Zm0-16a23.864,23.864,0,0,1-10.341-2.345l32-32A24,24,0,0,1,183,232Zm0-48a23.861,23.861,0,0,1,10.341,2.345l-32,32A24,24,0,0,1,183,184Z"/><path d="M328,168a40,40,0,1,0,40,40A40.045,40.045,0,0,0,328,168Zm0,16a23.861,23.861,0,0,1,10.341,2.345l-32,32A24,24,0,0,1,328,184Zm0,48a23.861,23.861,0,0,1-10.341-2.345l32-32A24,24,0,0,1,328,232Z"/><path d="M183,344a40,40,0,1,0-40-40A40.045,40.045,0,0,0,183,344Zm0-16a23.864,23.864,0,0,1-10.341-2.345l32-32A24,24,0,0,1,183,328Zm0-48a23.861,23.861,0,0,1,10.341,2.345l-32,32A24,24,0,0,1,183,280Z"/><path d="M328,264a40,40,0,1,0,40,40A40.045,40.045,0,0,0,328,264Zm0,16a23.861,23.861,0,0,1,10.341,2.345l-32,32A24,24,0,0,1,328,280Zm0,48a23.861,23.861,0,0,1-10.341-2.345l32-32A24,24,0,0,1,328,328Z"/><path d="M223,400a40,40,0,1,0-40,40A40.045,40.045,0,0,0,223,400Zm-40-24a23.861,23.861,0,0,1,10.341,2.345l-32,32A24,24,0,0,1,183,376Zm0,48a23.864,23.864,0,0,1-10.341-2.345l32-32A24,24,0,0,1,183,424Z"/><path d="M328,360a40,40,0,1,0,40,40A40.045,40.045,0,0,0,328,360Zm0,16a23.861,23.861,0,0,1,10.341,2.345l-32,32A24,24,0,0,1,328,376Zm0,48a23.861,23.861,0,0,1-10.341-2.345l32-32A24,24,0,0,1,328,424Z"/><path d="M380,8H132a28.031,28.031,0,0,0-28,28V476a28.031,28.031,0,0,0,28,28H380a28.031,28.031,0,0,0,28-28V36A28.031,28.031,0,0,0,380,8Zm12,468a12.01,12.01,0,0,1-12,12H132a12.01,12.01,0,0,1-12-12V36a12.01,12.01,0,0,1,12-12H380a12.01,12.01,0,0,1,12,12Z"/><path d="M200,48H312a8,8,0,0,0,0-16H200a8,8,0,0,0,0,16Z"/><path d="M272,56H240a8,8,0,0,0,0,16h32a8,8,0,0,0,0-16Z"/><path d="M312,464H200a8,8,0,0,0,0,16H312a8,8,0,0,0,0-16Z"/><path d="M232,448a8,8,0,0,0,8,8h32a8,8,0,0,0,0-16H240A8,8,0,0,0,232,448Z"/><path d="M264,296V216a8,8,0,0,0-16,0v80a8,8,0,0,0,16,0Z"/></g></svg>
