<?xml version="1.0" encoding="UTF-8"?>
<svg xmlns="http://www.w3.org/2000/svg" width="512" height="512" viewBox="0 0 512 512"><g><circle cx="216" cy="144" r="8"/><circle cx="296" cy="144" r="8"/><path d="M372.15,305.7,304,289.66V272a8,8,0,0,0,8-8v-4.12A72.287,72.287,0,0,0,344,200h8a24.032,24.032,0,0,0,24-24V144a24.031,24.031,0,0,0-16-22.62V96A88.1,88.1,0,0,0,272,8H240a88.1,88.1,0,0,0-88,88v25.38A24.031,24.031,0,0,0,136,144v32a24.032,24.032,0,0,0,24,24h8a72.287,72.287,0,0,0,32,59.88V264a8,8,0,0,0,8,8v17.66L139.85,305.7A87.661,87.661,0,0,0,72,391.36V496a8,8,0,0,0,8,8H432a8,8,0,0,0,8-8V391.36A87.661,87.661,0,0,0,372.15,305.7ZM328,200a56.2,56.2,0,0,1-16,39.17V187.31l16-16Zm32-56v32a8.011,8.011,0,0,1-8,8h-8V136h8A8.011,8.011,0,0,1,360,144ZM168,184h-8a8.011,8.011,0,0,1-8-8V144a8.011,8.011,0,0,1,8-8h8Zm0-64V96a72.083,72.083,0,0,1,72-72h32a72.083,72.083,0,0,1,72,72v24h-8c-14.36,0-33.72-29.36-40.84-43.58a8,8,0,0,0-14.75,1.05c-.62,1.87-6.15,12-53.84,27.91-23.64,7.88-46.81,13.51-51.5,14.62Zm32,119.17A56.2,56.2,0,0,1,184,200V171.31l16,16Zm-16-90.48V134.3c9.37-2.33,28.08-7.23,47.53-13.71,31.2-10.4,47.08-19.15,55.36-26.23,2.58,4.25,5.88,9.33,9.71,14.44,10.7,14.27,21.23,22.96,31.4,25.98v13.91l-26.75,26.74-43.93-7.32a7.8,7.8,0,0,0-2.64,0l-43.93,7.32ZM216,256V190.78l40-6.67,40,6.67V256Zm72,16v24c0,13.23-14.35,24-32,24s-32-10.77-32-24V272ZM424,488H376V440a8,8,0,0,0-16,0v48H152V440a8,8,0,0,0-16,0v48H88V391.36a71.71,71.71,0,0,1,55.51-70.08L168,315.51v45.5a32,32,0,1,0,16,0V312c0-.08-.01-.16-.01-.25l25.46-5.99C214.69,323.12,233.57,336,256,336s41.31-12.88,46.55-30.24l25.46,5.99c0,.09-.01.17-.01.25v56.8A40.069,40.069,0,0,0,296,408a8,8,0,0,0,8,8h16a8,8,0,0,0,0-16h-6.63a24,24,0,0,1,45.26,0H352a8,8,0,0,0,0,16h16a8,8,0,0,0,8-8,40.069,40.069,0,0,0-32-39.2V315.51l24.49,5.77A71.71,71.71,0,0,1,424,391.36ZM176,376a16,16,0,1,1-16,16A16.021,16.021,0,0,1,176,376Z"/></g></svg>
