<?xml version="1.0" encoding="UTF-8"?>
<svg xmlns="http://www.w3.org/2000/svg" width="512" height="512" viewBox="0 0 512 512"><g><path d="M413.46,401.14l-74.83-74.83a32.055,32.055,0,0,0-45.26,0l-15.03,15.03L230.69,389a16.017,16.017,0,0,1-15.9,4.02,144.376,144.376,0,0,1-96.81-96.81,16.006,16.006,0,0,1,4.02-15.9l47.66-47.65,15.03-15.03A31.828,31.828,0,0,0,194.06,195a31.817,31.817,0,0,0-9.37-22.63L109.86,97.54A32.108,32.108,0,0,0,85.41,88.2a31.759,31.759,0,0,0-23.04,11.82c-4.08,5.09-8,10.41-11.67,15.8v.01A248.034,248.034,0,0,0,395.17,460.3c.01,0,.01,0,.01-.01,5.39-3.65,10.71-7.58,15.8-11.66A31.757,31.757,0,0,0,422.8,425.6,32.1,32.1,0,0,0,413.46,401.14ZM74.86,110.02a15.55,15.55,0,0,1,11.43-5.85,16.107,16.107,0,0,1,12.25,4.69l74.83,74.83a15.982,15.982,0,0,1,0,22.62L164,215.69,67.72,119.41C70.02,116.22,72.41,113.08,74.86,110.02ZM256,487A232.054,232.054,0,0,1,58.65,132.96l46.71,46.71L152.69,227l-42,42a31.992,31.992,0,0,0-8.05,31.78A160.363,160.363,0,0,0,210.22,408.36,31.992,31.992,0,0,0,242,400.31l42-42,88.53,88.54,5.51,5.5A230.809,230.809,0,0,1,256,487Zm150.83-62.28a15.547,15.547,0,0,1-5.85,11.42c-3.06,2.45-6.2,4.84-9.39,7.14L295.31,347l9.38-9.37a16.006,16.006,0,0,1,22.62,0l74.83,74.83A16.1,16.1,0,0,1,406.83,424.72Z"/><path d="M376,8a129.018,129.018,0,0,0-31.7,3.953A128.118,128.118,0,0,0,248,136a128,128,0,0,0,227.429,80.61,126.8,126.8,0,0,0,24.621-48.92A128.122,128.122,0,0,0,376,8ZM484.545,163.744A112.117,112.117,0,0,1,376,248,112,112,0,0,1,305.479,48.989a110.881,110.881,0,0,1,42.765-21.531,112.124,112.124,0,0,1,136.3,136.286Z"/><path d="M376,48a88,88,0,1,0,88,88A88.1,88.1,0,0,0,376,48Zm0,160a72,72,0,1,1,72-72A72.081,72.081,0,0,1,376,208Z"/><path d="M400,112V88a8,8,0,0,0-8-8H360a8,8,0,0,0-8,8v24H328a8,8,0,0,0-8,8v32a8,8,0,0,0,8,8h24v24a8,8,0,0,0,8,8h32a8,8,0,0,0,8-8V160h24a8,8,0,0,0,8-8V120a8,8,0,0,0-8-8Zm16,32H392a8,8,0,0,0-8,8v24H368V152a8,8,0,0,0-8-8H336V128h24a8,8,0,0,0,8-8V96h16v24a8,8,0,0,0,8,8h24Z"/></g></svg>
