<svg height="512" viewBox="0 0 512 512" width="512" xmlns="http://www.w3.org/2000/svg"><g><path d="m424.04 136h-16a24.025 24.025 0 0 0 -24 24v68.57a24.023 24.023 0 0 0 -17.7 6.88l-70.63 65.04a24.029 24.029 0 0 0 -7.75 17.71l.08 33.8v80.04h-16.04a8 8 0 0 0 -8 8v56a8 8 0 0 0 8 8h128a8 8 0 0 0 8-8v-56a8 8 0 0 0 -8-8h-15.96v-17.48a8.073 8.073 0 0 1 2.29-5.62l54.86-55.68a23.922 23.922 0 0 0 6.85-16.79v-176.47a24.032 24.032 0 0 0 -24-24zm-32.04 312.04v40h-112v-40zm40.04-111.57a8.009 8.009 0 0 1 -2.27 5.59l-54.83 55.65a23.852 23.852 0 0 0 -6.9 16.85v17.44h-64v-80.02l-.08-33.82a8.015 8.015 0 0 1 .68-3.22 8.1 8.1 0 0 1 1.9-2.68l70.75-65.15c.08-.07.15-.15.23-.22a8.013 8.013 0 0 1 10.08-1.02 7.9 7.9 0 0 1 1.24 1.02l11.31 11.31a8 8 0 0 1 0 11.31l-50.91 50.91a8 8 0 0 0 11.31 11.32l50.91-50.91a24.009 24.009 0 0 0 0-33.95l-11.31-11.31c-.04-.04-.08-.07-.11-.1v-75.47a8 8 0 0 1 8-8h16a8.011 8.011 0 0 1 8 8z"/><path d="m240.035 432.035h-16.035v-80.018l.07-33.82a24.013 24.013 0 0 0 -7.74-17.7l-70.63-65.052a24.029 24.029 0 0 0 -17.7-6.877v-68.568a24.027 24.027 0 0 0 -24-24h-16a24.027 24.027 0 0 0 -24 24v176.47a23.922 23.922 0 0 0 6.871 16.814l54.835 55.665a8.047 8.047 0 0 1 2.294 5.611v17.475h-15.965a8 8 0 0 0 -8 8v56a8 8 0 0 0 8 8h128a8 8 0 0 0 8-8v-56a8 8 0 0 0 -8-8zm-157.742-89.955a7.988 7.988 0 0 1 -2.293-5.61v-176.47a8.009 8.009 0 0 1 8-8h16a8.009 8.009 0 0 1 8 8v75.467c-.038.037-.08.069-.117.106l-11.31 11.31a24 24 0 0 0 0 33.944l50.909 50.91a8 8 0 1 0 11.318-11.314l-50.909-50.91a8 8 0 0 1 0-11.316l11.31-11.312a7.975 7.975 0 0 1 11.315 0q.117.115.237.228l70.75 65.158a7.981 7.981 0 0 1 2.57 5.889l-.073 33.84v80h-64v-17.44a23.84 23.84 0 0 0 -6.9-16.844zm149.742 145.955h-112v-40h112z"/><path d="m296 96h-16v-16a8 8 0 0 0 -8-8h-32a8 8 0 0 0 -8 8v16h-16a8 8 0 0 0 -8 8v32a8 8 0 0 0 8 8h16v16a8 8 0 0 0 8 8h32a8 8 0 0 0 8-8v-16h16a8 8 0 0 0 8-8v-32a8 8 0 0 0 -8-8zm-8 32h-16a8 8 0 0 0 -8 8v16h-16v-16a8 8 0 0 0 -8-8h-16v-16h16a8 8 0 0 0 8-8v-16h16v16a8 8 0 0 0 8 8h16z"/><path d="m256 40a80 80 0 1 0 80 80 80.091 80.091 0 0 0 -80-80zm0 144a64 64 0 1 1 64-64 64.072 64.072 0 0 1 -64 64z"/><path d="m368 120a112 112 0 1 0 -112 112 112.127 112.127 0 0 0 112-112zm-112 96a96 96 0 1 1 96-96 96.108 96.108 0 0 1 -96 96z"/></g></svg>