<svg height="512" viewBox="0 0 512 512" width="512" xmlns="http://www.w3.org/2000/svg"><g><path d="m448 192a24.032 24.032 0 0 0 24-24v-32a24.032 24.032 0 0 0 -24-24h-8v-48a8 8 0 0 0 -8-8h-24v-16a32.036 32.036 0 0 0 -32-32h-328a8 8 0 0 0 -8 8v480a8 8 0 0 0 8 8h328a32.036 32.036 0 0 0 32-32v-16h24a8 8 0 0 0 8-8v-48h8a24.032 24.032 0 0 0 24-24v-32a24.032 24.032 0 0 0 -24-24h-8v-24h8a24.032 24.032 0 0 0 24-24v-32a24.032 24.032 0 0 0 -24-24h-8v-24zm-8-64h8a8.011 8.011 0 0 1 8 8v32a8.011 8.011 0 0 1 -8 8h-8zm-48 344a16.021 16.021 0 0 1 -16 16h-320v-464h320a16.021 16.021 0 0 1 16 16zm56-136a8.011 8.011 0 0 1 8 8v32a8.011 8.011 0 0 1 -8 8h-8v-48zm0-104a8.011 8.011 0 0 1 8 8v32a8.011 8.011 0 0 1 -8 8h-16a8 8 0 0 0 -8 8v152h-16v-368h16v152a8 8 0 0 0 8 8z"/><path d="m80 80h112a8 8 0 0 0 0-16h-112a8 8 0 0 0 0 16z"/><path d="m80 56h112a8 8 0 0 0 0-16h-112a8 8 0 0 0 0 16z"/><path d="m152 96a8 8 0 0 0 -8-8h-64a8 8 0 0 0 0 16h64a8 8 0 0 0 8-8z"/><path d="m264 232h-16v-16a8 8 0 0 0 -8-8h-32a8 8 0 0 0 -8 8v16h-16a8 8 0 0 0 -8 8v32a8 8 0 0 0 8 8h16v16a8 8 0 0 0 8 8h32a8 8 0 0 0 8-8v-16h16a8 8 0 0 0 8-8v-32a8 8 0 0 0 -8-8zm-8 32h-16a8 8 0 0 0 -8 8v16h-16v-16a8 8 0 0 0 -8-8h-16v-16h16a8 8 0 0 0 8-8v-16h16v16a8 8 0 0 0 8 8h16z"/><path d="m224 176a80 80 0 1 0 80 80 80.091 80.091 0 0 0 -80-80zm0 144a64 64 0 1 1 64-64 64.072 64.072 0 0 1 -64 64z"/><path d="m328 256a104 104 0 1 0 -104 104 104.118 104.118 0 0 0 104-104zm-104 88a88 88 0 1 1 88-88 88.1 88.1 0 0 1 -88 88z"/><path d="m368 408h-104a8 8 0 0 0 -8 8v48a8 8 0 0 0 8 8h104a8 8 0 0 0 8-8v-48a8 8 0 0 0 -8-8zm-8 48h-88v-32h88z"/></g></svg>