<svg height="512" viewBox="0 0 512 512" width="512" xmlns="http://www.w3.org/2000/svg"><g><path d="m440 8h-368a8 8 0 0 0 -8 8v480a8 8 0 0 0 8 8h368a8 8 0 0 0 8-8v-480a8 8 0 0 0 -8-8zm-248 16h128v52a12.01 12.01 0 0 1 -12 12h-104a12.01 12.01 0 0 1 -12-12zm12 80h104a28.031 28.031 0 0 0 28-28v-20h64v400h-288v-400h64v20a28.031 28.031 0 0 0 28 28zm228 384h-352v-464h96v16h-72a8 8 0 0 0 -8 8v416a8 8 0 0 0 8 8h304a8 8 0 0 0 8-8v-416a8 8 0 0 0 -8-8h-72v-16h96z"/><path d="m176 120a8 8 0 0 0 -16 0v24h-24a8 8 0 0 0 0 16h24v24a8 8 0 0 0 16 0v-24h24a8 8 0 0 0 0-16h-24z"/><path d="m128 224a8 8 0 0 0 8 8h240a8 8 0 0 0 0-16h-240a8 8 0 0 0 -8 8z"/><path d="m376 248h-240a8 8 0 0 0 0 16h240a8 8 0 0 0 0-16z"/><path d="m376 280h-240a8 8 0 0 0 0 16h240a8 8 0 0 0 0-16z"/><path d="m280 312h-144a8 8 0 0 0 0 16h144a8 8 0 0 0 0-16z"/><path d="m312 312h-8a8 8 0 0 0 0 16h8a8 8 0 0 0 0-16z"/><path d="m376 376h-48a8 8 0 0 0 -8 8v48a8 8 0 0 0 8 8h48a8 8 0 0 0 8-8v-48a8 8 0 0 0 -8-8zm-8 48h-32v-32h32z"/></g></svg>