<svg height="512" viewBox="0 0 512 512" width="512" xmlns="http://www.w3.org/2000/svg"><g><path d="m476 96h-76v-72a8 8 0 0 0 -8-8h-272a8 8 0 0 0 -8 8v72h-76a28.031 28.031 0 0 0 -28 28v280a28.031 28.031 0 0 0 28 28h162.24l-4.8 24h-25.44a8 8 0 0 0 -8 8v16h-40a8 8 0 0 0 0 16h256a8 8 0 0 0 0-16h-24v-16a8 8 0 0 0 -8-8h-25.6l-5.4-24h163a28.031 28.031 0 0 0 28-28v-280a28.031 28.031 0 0 0 -28-28zm-348-64h256v344h-256zm-104 92a12.01 12.01 0 0 1 12-12h76v264h-88zm312 348v8h-160v-8zm-126.24-16 4.8-24h82.04l5.4 24zm278.24-52a12.01 12.01 0 0 1 -12 12h-440a12.01 12.01 0 0 1 -12-12v-12h464zm0-28h-88v-264h76a12.01 12.01 0 0 1 12 12z"/><path d="m408 480h-8a8 8 0 0 0 0 16h8a8 8 0 0 0 0-16z"/><path d="m232 152v16a8 8 0 0 0 8 8h32a8 8 0 0 0 8-8v-16h16a8 8 0 0 0 8-8v-32a8 8 0 0 0 -8-8h-16v-16a8 8 0 0 0 -8-8h-32a8 8 0 0 0 -8 8v16h-16a8 8 0 0 0 -8 8v32a8 8 0 0 0 8 8zm-8-32h16a8 8 0 0 0 8-8v-16h16v16a8 8 0 0 0 8 8h16v16h-16a8 8 0 0 0 -8 8v16h-16v-16a8 8 0 0 0 -8-8h-16z"/><path d="m256 208a80 80 0 1 0 -80-80 80.091 80.091 0 0 0 80 80zm0-144a64 64 0 1 1 -64 64 64.072 64.072 0 0 1 64-64z"/><path d="m176 360h160a8 8 0 0 0 8-8v-24a8 8 0 0 0 -8-8h-160a8 8 0 0 0 -8 8v24a8 8 0 0 0 8 8zm8-24h144v8h-144z"/><path d="m288 240a8 8 0 0 0 0-16h-64a8 8 0 0 0 0 16z"/><path d="m328 264a8 8 0 0 0 -8-8h-128a8 8 0 0 0 0 16h128a8 8 0 0 0 8-8z"/><path d="m232 288a8 8 0 0 0 0 16h48a8 8 0 0 0 0-16z"/></g></svg>