<?xml version="1.0" encoding="UTF-8"?>
<svg xmlns="http://www.w3.org/2000/svg" width="512" height="512" viewBox="0 0 512 512"><g><circle cx="216" cy="184" r="8"/><circle cx="296" cy="184" r="8"/><path d="M392,341.54V160A128.47,128.47,0,0,0,332.46,51.84l3.5-35.04A8,8,0,0,0,328,8H184a8,8,0,0,0-7.96,8.8l3.5,35.04A128.47,128.47,0,0,0,120,160V341.54a87.644,87.644,0,0,0-40,73.82V496a8,8,0,0,0,8,8H424a8,8,0,0,0,8-8V415.36A87.644,87.644,0,0,0,392,341.54ZM319.16,24l-3.1,31a1.942,1.942,0,0,0-.02.24L312.76,88H199.24l-3.28-32.76a1.942,1.942,0,0,0-.02-.24l-3.1-31ZM136,160a112.413,112.413,0,0,1,45.36-90l2.68,26.8A8,8,0,0,0,192,104H320a8,8,0,0,0,7.96-7.2L330.64,70A112.413,112.413,0,0,1,376,160V333.39a88.673,88.673,0,0,0-11.85-3.69L296,313.66V304h8a8,8,0,0,0,8-8v-4.12A72.287,72.287,0,0,0,344,232a24.032,24.032,0,0,0,24-24V176a24.032,24.032,0,0,0-24-24h-8c-15.84,0-35.5-26.75-41.14-36.12a8,8,0,0,0-14.45,1.59c-.37,1.11-5.01,11.22-53.31,23.76-24.13,6.26-47.78,10.14-51.73,10.77H168a24.032,24.032,0,0,0-24,24v32a24.032,24.032,0,0,0,24,24,72.287,72.287,0,0,0,32,59.88V296a8,8,0,0,0,8,8h8v9.66L147.85,329.7A88.673,88.673,0,0,0,136,333.39Zm48,20.69V166.78c9.56-1.65,27.92-5.09,47.01-10.04,32.35-8.38,48.36-16.37,56.51-23.18,2.56,3.5,5.8,7.64,9.53,11.79,10.64,11.82,21.01,19.03,30.95,21.59v13.75l-26.75,26.74-43.93-7.32a7.8,7.8,0,0,0-2.64,0l-43.93,7.32Zm16,38.62v51.86A56.2,56.2,0,0,1,184,232V203.31Zm128-16V232a56.2,56.2,0,0,1-16,39.17V219.31ZM216,222.78l40-6.67,40,6.67V288H216ZM280,304v16c0,8.39-12.67,24.84-24,36.7-11.33-11.86-24-28.31-24-36.7V304Zm-59.03,32.87c8.48,16.43,25.27,32.9,29.53,36.94a8,8,0,0,0,11,0c4.31-4.09,21.49-20.94,29.86-37.59,3.02,4.15,6.47,9.14,9.69,14.44,10.93,17.99,12.25,28.15,10.06,31.38-1.38,2.04-5.57,3.19-11.58,3.12-9.48-.09-22.97-3.04-40.11-8.75a11.539,11.539,0,0,0-5.95,0c-17.14,5.71-30.63,8.66-40.11,8.75-6,.02-10.2-1.08-11.58-3.12C197.53,375.77,207.53,355.44,220.97,336.87ZM344,216V168a8.011,8.011,0,0,1,8,8v32A8.011,8.011,0,0,1,344,216ZM168,168v48a8.011,8.011,0,0,1-8-8V176A8.011,8.011,0,0,1,168,168ZM416,488H376V432a8,8,0,0,0-16,0v56H152V432a8,8,0,0,0-16,0v56H96V415.36a71.71,71.71,0,0,1,55.51-70.08l52.8-12.43c-2.03,2.97-4.12,6.17-6.14,9.5-13.56,22.31-16.71,38.22-9.64,48.66,4.57,6.75,12.55,10.13,24.35,10.13,11.05,0,25.46-2.97,43.56-8.87,18.11,5.9,32.52,8.87,43.56,8.87,11.81,0,19.79-3.38,24.36-10.13,7.07-10.44,3.91-26.35-9.64-48.66-1.96-3.23-4-6.35-5.97-9.25l51.74,12.18A71.71,71.71,0,0,1,416,415.36Z"/><path d="M240,64h8v8a8,8,0,0,0,16,0V64h8a8,8,0,0,0,0-16h-8V40a8,8,0,0,0-16,0v8h-8a8,8,0,0,0,0,16Z"/></g></svg>
