<?xml version="1.0" encoding="UTF-8"?>
<svg xmlns="http://www.w3.org/2000/svg" width="512" height="512" viewBox="0 0 512 512"><g><path d="M496,104h-8V84a28.031,28.031,0,0,0-28-28H52A28.031,28.031,0,0,0,24,84v20H16a8,8,0,0,0-8,8v32a8,8,0,0,0,8,8H139.47l45.67,76.12A8,8,0,0,0,192,232h24V344H200a8,8,0,0,0-7.76,6.06L185.75,376H120a8.011,8.011,0,0,0-7.16,4.42l-16,32A8,8,0,0,0,104,424h8a31.705,31.705,0,0,0,4.31,16H56a8,8,0,0,0,0,16H424a8,8,0,0,0,0-16H395.69A31.705,31.705,0,0,0,400,424h8a8,8,0,0,0,7.16-11.58l-16-32A8.011,8.011,0,0,0,392,376H326.25l-6.49-25.94A8,8,0,0,0,312,344H296V232h24a8,8,0,0,0,6.86-3.88L372.53,152H496a8,8,0,0,0,8-8V112A8,8,0,0,0,496,104ZM40,84A12.01,12.01,0,0,1,52,72H460a12.01,12.01,0,0,1,12,12v20H40ZM144,440a16.021,16.021,0,0,1-16-16h32A16.021,16.021,0,0,1,144,440Zm27.69,0A31.705,31.705,0,0,0,176,424H336a31.705,31.705,0,0,0,4.31,16ZM368,440a16.021,16.021,0,0,1-16-16h32A16.021,16.021,0,0,1,368,440Zm19.06-48,8,16H116.94l8-16Zm-81.31-32,4,16H202.25l4-16ZM232,344V232h48V344Zm83.47-128H196.53l-38.4-64H353.87ZM488,136H24V120H488Z"/><path d="M456,440h-8a8,8,0,0,0,0,16h8a8,8,0,0,0,0-16Z"/></g></svg>
