<svg height="512" viewBox="0 0 512 512" width="512" xmlns="http://www.w3.org/2000/svg"><path d="m296 160.44v-16.44a8 8 0 0 0 -8-8h-8v-40h56v8a8 8 0 0 0 16 0v-32a8 8 0 0 0 -16 0v8h-56v-32h48a8 8 0 0 0 8-8v-24a8 8 0 0 0 -8-8h-144a8 8 0 0 0 -8 8v24a8 8 0 0 0 8 8h48v32h-8v-16a8 8 0 0 0 -8-8h-24a8 8 0 0 0 -8 8v48a8 8 0 0 0 8 8h24a8 8 0 0 0 8-8v-16h8v40h-8a8 8 0 0 0 -8 8v16.44a72.1 72.1 0 0 0 -64 71.56v244a28.031 28.031 0 0 0 28 28h152a28.031 28.031 0 0 0 28-28v-244a72.1 72.1 0 0 0 -64-71.56zm-88-56.44h-8v-32h8zm-16-72v-8h128v8zm72 16v88h-16v-88zm80 428a12.01 12.01 0 0 1 -12 12h-152a12.01 12.01 0 0 1 -12-12v-68h176zm0-84h-176v-112h176zm0-128h-176v-32a56.062 56.062 0 0 1 56-56 8 8 0 0 0 8-8v-16h48v16a8 8 0 0 0 8 8 56.062 56.062 0 0 1 56 56z"/></svg>