<svg height="512" viewBox="0 0 512 512" width="512" xmlns="http://www.w3.org/2000/svg"><path d="m360 24h-40v-8a8 8 0 0 0 -8-8h-112a8 8 0 0 0 -8 8v8h-40a8 8 0 0 0 -8 8v48a8 8 0 0 0 8 8h40v8a8 8 0 0 0 8 8h24v96.29a28.043 28.043 0 0 0 -24 27.71v248a28.031 28.031 0 0 0 28 28h56a28.031 28.031 0 0 0 28-28v-248a28.043 28.043 0 0 0 -24-27.71v-96.29h24a8 8 0 0 0 8-8v-8h40a8 8 0 0 0 8-8v-48a8 8 0 0 0 -8-8zm-168 48h-32v-32h32zm104 360h-48v-16h48zm0-64h-48v-16h48zm0-64h-48v-16h48zm0-76v44h-56a8 8 0 0 0 -8 8v32a8 8 0 0 0 8 8h56v16h-56a8 8 0 0 0 -8 8v32a8 8 0 0 0 8 8h56v16h-56a8 8 0 0 0 -8 8v32a8 8 0 0 0 8 8h56v28a12.01 12.01 0 0 1 -12 12h-56a12.01 12.01 0 0 1 -12-12v-248a12.01 12.01 0 0 1 12-12h56a12.01 12.01 0 0 1 12 12zm-56-28v-96h32v96zm64-112h-96v-64h96zm48-16h-32v-32h32z"/></svg>