<svg height="512" viewBox="0 0 512 512" width="512" xmlns="http://www.w3.org/2000/svg"><g><path d="m496 152h-32a8 8 0 0 0 -8 8v40h-320v-4a28.031 28.031 0 0 0 -28-28h-52v-32a8 8 0 0 0 -8-8h-32a8 8 0 0 0 -8 8v120a8 8 0 0 0 8 8h26.23l14.18 42.53a8 8 0 0 0 7.59 5.47h8v16a8.451 8.451 0 0 0 .12 1.34 23.972 23.972 0 0 0 -9.99 38.66h-46.13a8 8 0 0 0 0 16h448a8 8 0 0 0 0-16h-14.13a23.972 23.972 0 0 0 -9.99-38.66 8.451 8.451 0 0 0 .12-1.34v-16h8a8 8 0 0 0 7.59-5.47l14.18-42.53h26.23a8 8 0 0 0 8-8v-96a8 8 0 0 0 -8-8zm-456 96h-16v-104h16zm16-64h52a12.01 12.01 0 0 1 12 12v4h-64zm24 176a8 8 0 1 1 8-8 8.011 8.011 0 0 1 -8 8zm334.13 8h-316.26a23.972 23.972 0 0 0 -9.99-38.66 8.451 8.451 0 0 0 .12-1.34v-16h336v16a8.451 8.451 0 0 0 .12 1.34 23.972 23.972 0 0 0 -9.99 38.66zm25.87-16a8 8 0 1 1 -8-8 8.011 8.011 0 0 1 8 8zm2.23-56h-372.46l-10.67-32h393.8zm13.77-48h-400v-32h400zm32 0h-16v-80h16z"/><path d="m496 368h-8a8 8 0 0 0 0 16h8a8 8 0 0 0 0-16z"/></g></svg>