<?xml version="1.0" encoding="UTF-8"?>
<svg xmlns="http://www.w3.org/2000/svg" width="512" height="512" viewBox="0 0 512 512"><g><path d="M400,200a56,56,0,0,0-8,111.42V420a12.01,12.01,0,0,1-12,12H364a12.01,12.01,0,0,1-12-12V396a28,28,0,0,0-56,0v80a12.01,12.01,0,0,1-12,12H212a12.01,12.01,0,0,1-12-12V344h8a8,8,0,0,0,8-8V293.73C275.15,282.47,320,230.38,320,168a8,8,0,0,0-8-8h-8V52a28.031,28.031,0,0,0-28-28h-4V16a8,8,0,0,0-9.94-7.76l-32,8A8,8,0,0,0,224,24V40a8,8,0,0,0,6.06,7.76l32,8A8,8,0,0,0,272,48V40h4a12.01,12.01,0,0,1,12,12V160h-8a8,8,0,0,0-8,8,80,80,0,0,1-160,0,8,8,0,0,0-8-8H96V52a12.01,12.01,0,0,1,12-12h4v8a8,8,0,0,0,9.94,7.76l32-8A8,8,0,0,0,160,40V24a8,8,0,0,0-6.06-7.76l-32-8A8,8,0,0,0,112,16v8h-4A28.031,28.031,0,0,0,80,52V160H72a8,8,0,0,0-8,8c0,62.38,44.85,114.47,104,125.73V336a8,8,0,0,0,8,8h8V476a28.031,28.031,0,0,0,28,28h72a28.031,28.031,0,0,0,28-28V396a12,12,0,0,1,24,0v24a28.031,28.031,0,0,0,28,28h16a28.031,28.031,0,0,0,28-28V311.42A56,56,0,0,0,400,200ZM256,37.75l-16-4v-3.5l16-4ZM128,26.25l16,4v3.5l-16,4ZM80.28,176H96.33a96,96,0,0,0,191.34,0h16.05a112.007,112.007,0,0,1-223.44,0ZM184,328V296h16v32Zm216-32a40,40,0,1,1,40-40A40.04,40.04,0,0,1,400,296Z"/><path d="M400,224a32,32,0,1,0,32,32A32.036,32.036,0,0,0,400,224Zm0,48a16,16,0,1,1,16-16A16.019,16.019,0,0,1,400,272Z"/></g></svg>
