<svg height="512" viewBox="0 0 512 512" width="512" xmlns="http://www.w3.org/2000/svg"><path d="m304 48a8 8 0 0 0 8-8v-24a8 8 0 0 0 -8-8h-96a8 8 0 0 0 -8 8v24a8 8 0 0 0 8 8h24v40h-24a8 8 0 0 0 -8 8v320a8 8 0 0 0 8 8h24v24a8 8 0 0 0 8 8h8v40a8 8 0 0 0 16 0v-40h8a8 8 0 0 0 8-8v-24h24a8 8 0 0 0 8-8v-320a8 8 0 0 0 -8-8h-24v-40zm-88 56h16v96h-16zm48 336h-16v-16h16zm32-208h-16a8 8 0 0 0 0 16h16v16h-16a8 8 0 0 0 0 16h16v16h-16a8 8 0 0 0 0 16h16v16h-16a8 8 0 0 0 0 16h16v16h-16a8 8 0 0 0 0 16h16v32h-80v-192h80zm-32-128v96h-16v-96zm-16-16v-40h16v40zm48 16v96h-16v-96zm-80-72v-8h80v8z"/></svg>