<svg height="512" viewBox="0 0 512 512" width="512" xmlns="http://www.w3.org/2000/svg"><g><path d="m380 40h-92v-4a28.031 28.031 0 0 0 -28-28h-72a28.031 28.031 0 0 0 -28 28v4h-16a8 8 0 0 0 -8 8v24h-4a28.031 28.031 0 0 0 -28 28v144a28.031 28.031 0 0 0 28 28h4v204a28.031 28.031 0 0 0 28 28h121.08a28.022 28.022 0 0 0 27.96-26.45l10.53-189.55h20.43a8 8 0 0 0 7.95-7.12l7.21-64.88h20.84a28.031 28.031 0 0 0 28-28v-120a28.031 28.031 0 0 0 -28-28zm-204-4a12.01 12.01 0 0 1 12-12h72a12.01 12.01 0 0 1 12 12v4h-96zm-44 220a12.01 12.01 0 0 1 -12-12v-144a12.01 12.01 0 0 1 12-12h20v168zm165.06 220.67a12 12 0 0 1 -11.98 11.33h-121.08a12.01 12.01 0 0 1 -12-12v-4h145.32zm3.37-60.67h-52.43v-32h54.21zm4-72h-56.43v-32h58.21zm32.41-72h-12.38l3.11-56h15.49zm23.16-72h-40a8.005 8.005 0 0 0 -7.99 7.56l-4.91 88.44h-67.1a8 8 0 0 0 -8 8v48a8 8 0 0 0 8 8h63.54l-.44 8h-63.1a8 8 0 0 0 -8 8v48a8 8 0 0 0 8 8h59.54l-1.33 24h-146.21v-184h8a8 8 0 0 0 8-8v-184a8 8 0 0 0 -8-8h-8v-16h208zm32-12a12.01 12.01 0 0 1 -12 12h-4v-144h4a12.01 12.01 0 0 1 12 12z"/><path d="m264 96h72a8 8 0 0 0 0-16h-72a8 8 0 0 0 0 16z"/><path d="m336 112h-40a8 8 0 0 0 0 16h40a8 8 0 0 0 0-16z"/></g></svg>