<?xml version="1.0" encoding="UTF-8"?>
<svg xmlns="http://www.w3.org/2000/svg" width="512" height="512" viewBox="0 0 512 512"><path d="M496,416h-8V240h8a8,8,0,0,0,0-16h-8V168a8,8,0,0,0-8-8H456a8,8,0,0,0-8,8v56H424V96h8a8,8,0,0,0,8-8V64a8,8,0,0,0-8-8H336a8,8,0,0,0-8,8V88a8,8,0,0,0,8,8h8V224H296V96h8a8,8,0,0,0,8-8V64a8,8,0,0,0-8-8H208a8,8,0,0,0-8,8V88a8,8,0,0,0,8,8h8V224H168V96h8a8,8,0,0,0,8-8V64a8,8,0,0,0-8-8H80a8,8,0,0,0-8,8V88a8,8,0,0,0,8,8h8V224H64V168a8,8,0,0,0-8-8H32a8,8,0,0,0-8,8v56H16a8,8,0,0,0,0,16h8V416H16a8,8,0,0,0-8,8v24a8,8,0,0,0,8,8H496a8,8,0,0,0,8-8V424A8,8,0,0,0,496,416ZM464,176h8v48h-8Zm0,64h8V416h-8ZM344,72h80v8H344Zm16,152V96h48V224Zm48,16V368a24,24,0,0,1-48,0V240ZM216,72h80v8H216Zm16,152V96h48V224Zm48,16V368a24,24,0,0,1-48,0V240ZM88,72h80v8H88Zm16,152V96h48V224Zm48,16V368a24,24,0,0,1-48,0V240Zm-88,0H88V368a40,40,0,0,0,80,0V240h48V368a40,40,0,0,0,80,0V240h48V368a40,40,0,0,0,80,0V240h24V416H64ZM40,176h8v48H40Zm0,64h8V416H40ZM488,440H24v-8H488Z"/></svg>
