<svg height="512" viewBox="0 0 512 512" width="512" xmlns="http://www.w3.org/2000/svg"><g><path d="m496 480h-8v-136a8 8 0 0 0 -8-8h-24a8 8 0 0 0 -8 8v40h-8v-8a8 8 0 0 0 -8-8h-8v-116a28.031 28.031 0 0 0 -28-28h-104a28.031 28.031 0 0 0 -28 28v116h-16v-116a28.031 28.031 0 0 0 -28-28h-104a28.031 28.031 0 0 0 -28 28v116h-8a8 8 0 0 0 -8 8v8h-8v-40a8 8 0 0 0 -8-8h-24a8 8 0 0 0 -8 8v136h-8a8 8 0 0 0 0 16h480a8 8 0 0 0 0-16zm-448 0h-8v-128h8zm232-228a12.01 12.01 0 0 1 12-12h104a12.01 12.01 0 0 1 12 12v116h-128zm-16 132h160v16h-160zm-160-132a12.01 12.01 0 0 1 12-12h104a12.01 12.01 0 0 1 12 12v116h-128zm-16 132h160v16h-160zm360 96h-384v-80h8v8a8 8 0 0 0 8 8h352a8 8 0 0 0 8-8v-8h8zm24 0h-8v-128h8z"/><path d="m256 160a72 72 0 1 0 -72-72 72.081 72.081 0 0 0 72 72zm0-128a56 56 0 1 1 -56 56 56.063 56.063 0 0 1 56-56z"/><path d="m262.343 105.657a8 8 0 0 0 11.314-11.314l-9.657-9.656v-28.687a8 8 0 0 0 -16 0v32a8 8 0 0 0 2.343 5.657z"/></g></svg>