<?xml version="1.0" encoding="UTF-8"?>
<svg xmlns="http://www.w3.org/2000/svg" width="512" height="512" viewBox="0 0 512 512"><g><path d="M432,488h-9.75l-14.49-57.94A8,8,0,0,0,400,424H383.78A224.061,224.061,0,0,0,312,23.07V16a8,8,0,0,0-8-8H208a8,8,0,0,0-8,8v7.07A224.073,224.073,0,0,0,128.22,424H112a8,8,0,0,0-7.76,6.06L89.75,488H48a8,8,0,0,0,0,16H432a8,8,0,0,0,0-16ZM312,39.64a208.042,208.042,0,0,1-24,405.91V392h64a8,8,0,0,0,8-8V371.93a169.544,169.544,0,0,0,45.7-55.6,168.18,168.18,0,0,0-14.94-176.67A169.658,169.658,0,0,0,312,81.57ZM216,24h80V88H216ZM200.4,98.5A8.012,8.012,0,0,0,208,104h96a8.012,8.012,0,0,0,7.6-5.5,153.672,153.672,0,0,1,66.33,50.72,152.172,152.172,0,0,1,13.52,159.83A153.558,153.558,0,0,1,360,350.83V340a28.031,28.031,0,0,0-28-28H180a28.031,28.031,0,0,0-28,28v10.83a153.558,153.558,0,0,1-31.45-41.78,152.172,152.172,0,0,1,13.52-159.83A153.672,153.672,0,0,1,200.4,98.5ZM224,488H106.25l12-48h36.8A222.97,222.97,0,0,0,224,461.71Zm0-42.45A208.044,208.044,0,0,1,200,39.64V81.57a169.658,169.658,0,0,0-78.76,58.09A168.18,168.18,0,0,0,106.3,316.33a169.544,169.544,0,0,0,45.7,55.6V384a8,8,0,0,0,8,8h64ZM272,488H240V392h32ZM168,376V340a12.01,12.01,0,0,1,12-12H332a12.01,12.01,0,0,1,12,12v36ZM288,488V461.71A222.97,222.97,0,0,0,356.95,440h36.8l12,48Z"/><path d="M464,488h-8a8,8,0,0,0,0,16h8a8,8,0,0,0,0-16Z"/></g></svg>
