<svg height="512" viewBox="0 0 512 512" width="512" xmlns="http://www.w3.org/2000/svg"><g><path d="m348 160h-44v-24a8 8 0 0 0 -8-8h-16v-48h16a8 8 0 0 0 8-8v-8h24v8a8 8 0 0 0 8 8h24a8 8 0 0 0 8-8v-40a8 8 0 0 0 -8-8h-56v-8a8 8 0 0 0 -8-8h-80a8 8 0 0 0 -8 8v56a8 8 0 0 0 8 8h16v48h-16a8 8 0 0 0 -8 8v24h-44a28.031 28.031 0 0 0 -28 28v288a28.031 28.031 0 0 0 28 28h184a28.031 28.031 0 0 0 28-28v-288a28.031 28.031 0 0 0 -28-28zm-44-120h48v24h-8v-8a8 8 0 0 0 -8-8h-32zm-80 24v-40h64v40zm40 16v48h-16v-48zm-40 64h64v16h-64zm136 332a12.01 12.01 0 0 1 -12 12h-184a12.01 12.01 0 0 1 -12-12v-288a12.01 12.01 0 0 1 12-12h184a12.01 12.01 0 0 1 12 12z"/><path d="m280 296v-16a8 8 0 0 0 -8-8h-32a8 8 0 0 0 -8 8v16h-16a8 8 0 0 0 -8 8v32a8 8 0 0 0 8 8h16v16a8 8 0 0 0 8 8h32a8 8 0 0 0 8-8v-16h16a8 8 0 0 0 8-8v-32a8 8 0 0 0 -8-8zm8 32h-16a8 8 0 0 0 -8 8v16h-16v-16a8 8 0 0 0 -8-8h-16v-16h16a8 8 0 0 0 8-8v-16h16v16a8 8 0 0 0 8 8h16z"/><path d="m256 240a80 80 0 1 0 80 80 80.091 80.091 0 0 0 -80-80zm0 144a64 64 0 1 1 64-64 64.072 64.072 0 0 1 -64 64z"/></g></svg>