<svg height="512" viewBox="0 0 512 512" width="512" xmlns="http://www.w3.org/2000/svg"><g><path d="m256 200a120 120 0 1 0 120 120 120.136 120.136 0 0 0 -120-120zm0 224a104 104 0 1 1 104-104 104.118 104.118 0 0 1 -104 104z"/><path d="m328 288h-40v-40a8 8 0 0 0 -8-8h-48a8 8 0 0 0 -8 8v40h-40a8 8 0 0 0 -8 8v48a8 8 0 0 0 8 8h40v40a8 8 0 0 0 8 8h48a8 8 0 0 0 8-8v-40h40a8 8 0 0 0 8-8v-48a8 8 0 0 0 -8-8zm-8 48h-40a8 8 0 0 0 -8 8v40h-32v-40a8 8 0 0 0 -8-8h-40v-32h40a8 8 0 0 0 8-8v-40h32v40a8 8 0 0 0 8 8h40z"/><path d="m262.092 10.815a8 8 0 0 0 -12.184 0c-7.264 8.536-177.908 210.178-177.908 309.185 0 101.458 82.542 184 184 184s184-82.542 184-184c0-99.007-170.644-300.649-177.908-309.185zm-6.092 477.185c-92.636 0-168-75.364-168-168 0-83.1 137.162-254.112 168-291.5 30.838 37.383 168 208.375 168 291.5 0 92.636-75.364 168-168 168z"/></g></svg>