<?xml version="1.0" encoding="UTF-8"?>
<svg xmlns="http://www.w3.org/2000/svg" width="512" height="512" viewBox="0 0 512 512"><g><path d="M456,40H424V24a8,8,0,0,0-8-8H384a8,8,0,0,0-8,8V40H352V24a8,8,0,0,0-8-8H312a8,8,0,0,0-8,8V40H280V24a8,8,0,0,0-8-8H240a8,8,0,0,0-8,8V40H208V24a8,8,0,0,0-8-8H168a8,8,0,0,0-8,8V40H136V24a8,8,0,0,0-8-8H96a8,8,0,0,0-8,8V40H56A48.051,48.051,0,0,0,8,88V448a48.051,48.051,0,0,0,48,48H456a48.051,48.051,0,0,0,48-48V88A48.051,48.051,0,0,0,456,40Zm-64-8h16V64H392Zm-72,0h16V64H320Zm-72,0h16V64H248Zm-72,0h16V64H176Zm-72,0h16V64H104ZM488,448a32.036,32.036,0,0,1-32,32H56a32.03,32.03,0,0,1-32-32V427.74A47.8,47.8,0,0,0,56,440H392a7.979,7.979,0,0,0,5.63-2.32L488,348.18Zm-88-35.18V336h77.56ZM488,320H392a8,8,0,0,0-8,8v96H56a32.03,32.03,0,0,1-32-32V112H488Zm0-224H24V88A32.03,32.03,0,0,1,56,56H88V72a8,8,0,0,0,8,8h32a8,8,0,0,0,8-8V56h24V72a8,8,0,0,0,8,8h32a8,8,0,0,0,8-8V56h24V72a8,8,0,0,0,8,8h32a8,8,0,0,0,8-8V56h24V72a8,8,0,0,0,8,8h32a8,8,0,0,0,8-8V56h24V72a8,8,0,0,0,8,8h32a8,8,0,0,0,8-8V56h32a32.036,32.036,0,0,1,32,32Z"/><path d="M96,184h32a8,8,0,0,0,8-8V144a8,8,0,0,0-8-8H96a8,8,0,0,0-8,8v32A8,8,0,0,0,96,184Zm8-32h16v16H104Z"/><path d="M384,184h32a8,8,0,0,0,8-8V144a8,8,0,0,0-8-8H384a8,8,0,0,0-8,8v32A8,8,0,0,0,384,184Zm8-32h16v16H392Z"/><path d="M96,248h32a8,8,0,0,0,8-8V208a8,8,0,0,0-8-8H96a8,8,0,0,0-8,8v32A8,8,0,0,0,96,248Zm8-32h16v16H104Z"/><path d="M384,248h32a8,8,0,0,0,8-8V208a8,8,0,0,0-8-8H384a8,8,0,0,0-8,8v32A8,8,0,0,0,384,248Zm8-32h16v16H392Z"/><path d="M168,312h32a8,8,0,0,0,8-8v-6.28a87.812,87.812,0,0,0,96,0V304a8,8,0,0,0,8,8h32a8,8,0,0,0,8-8V272a8,8,0,0,0-8-8h-9.628a87.9,87.9,0,0,0,0-80H344a8,8,0,0,0,8-8V144a8,8,0,0,0-8-8H312a8,8,0,0,0-8,8v6.28a87.812,87.812,0,0,0-96,0V144a8,8,0,0,0-8-8H168a8,8,0,0,0-8,8v32a8,8,0,0,0,8,8h9.628a87.9,87.9,0,0,0,0,80H168a8,8,0,0,0-8,8v32A8,8,0,0,0,168,312Zm168-32v16H320V284.333q1.984-2.1,3.833-4.333Zm0-128v16H323.833q-1.845-2.231-3.833-4.333V152Zm-8,72a72,72,0,1,1-72-72A72.081,72.081,0,0,1,328,224ZM176,168V152h16v11.667q-1.985,2.1-3.833,4.333Zm0,112h12.167q1.845,2.231,3.833,4.333V296H176Z"/><path d="M96,312h32a8,8,0,0,0,8-8V272a8,8,0,0,0-8-8H96a8,8,0,0,0-8,8v32A8,8,0,0,0,96,312Zm8-32h16v16H104Z"/><path d="M272,328H240a8,8,0,0,0-8,8v32a8,8,0,0,0,8,8h32a8,8,0,0,0,8-8V336A8,8,0,0,0,272,328Zm-8,32H248V344h16Z"/><path d="M168,376h32a8,8,0,0,0,8-8V336a8,8,0,0,0-8-8H168a8,8,0,0,0-8,8v32A8,8,0,0,0,168,376Zm8-32h16v16H176Z"/><path d="M96,376h32a8,8,0,0,0,8-8V336a8,8,0,0,0-8-8H96a8,8,0,0,0-8,8v32A8,8,0,0,0,96,376Zm8-32h16v16H104Z"/><path d="M384,312h32a8,8,0,0,0,8-8V272a8,8,0,0,0-8-8H384a8,8,0,0,0-8,8v32A8,8,0,0,0,384,312Zm8-32h16v16H392Z"/><path d="M216,248h16v16a8,8,0,0,0,8,8h32a8,8,0,0,0,8-8V248h16a8,8,0,0,0,8-8V208a8,8,0,0,0-8-8H280V184a8,8,0,0,0-8-8H240a8,8,0,0,0-8,8v16H216a8,8,0,0,0-8,8v32A8,8,0,0,0,216,248Zm8-32h16a8,8,0,0,0,8-8V192h16v16a8,8,0,0,0,8,8h16v16H272a8,8,0,0,0-8,8v16H248V240a8,8,0,0,0-8-8H224Z"/></g></svg>
