<?xml version="1.0" encoding="UTF-8"?>
<svg xmlns="http://www.w3.org/2000/svg" width="512" height="512" viewBox="0 0 512 512"><g><circle cx="216" cy="144" r="8"/><circle cx="296" cy="144" r="8"/><path d="M476,104H360V96A88.1,88.1,0,0,0,272,8H240a88.1,88.1,0,0,0-88,88v8H36A28.031,28.031,0,0,0,8,132V412a28.031,28.031,0,0,0,28,28H198.24l-4.8,24H168a8,8,0,0,0-8,8v16H120a8,8,0,0,0,0,16H376a8,8,0,0,0,0-16H352V472a8,8,0,0,0-8-8H318.4L313,440H476a28.031,28.031,0,0,0,28-28V132A28.031,28.031,0,0,0,476,104ZM360,144v32a8.011,8.011,0,0,1-8,8h-8V136h8A8.011,8.011,0,0,1,360,144ZM168,96a72.083,72.083,0,0,1,72-72h32a72.083,72.083,0,0,1,72,72v24h-8c-14.36,0-33.72-29.36-40.84-43.58a8,8,0,0,0-14.75,1.05c-.62,1.87-6.15,12-53.84,27.91-23.64,7.88-46.81,13.51-51.5,14.62H168Zm133.25,79.43-43.93-7.32a7.8,7.8,0,0,0-2.64,0l-43.93,7.32L184,148.69V134.3c9.37-2.33,28.08-7.23,47.53-13.71,31.2-10.4,47.08-19.15,55.36-26.23,2.58,4.25,5.88,9.33,9.71,14.44,10.7,14.27,21.23,22.96,31.4,25.98v13.91ZM328,171.31V200a56.2,56.2,0,0,1-16,39.17V187.31ZM304,376h16a8,8,0,0,0,0-16h-6.63a24,24,0,0,1,45.26,0H352a8,8,0,0,0,0,16h16a8,8,0,0,0,8-8,40.069,40.069,0,0,0-32-39.2V307.51l24.49,5.77A71.71,71.71,0,0,1,424,383.36V384H88v-.64a71.71,71.71,0,0,1,55.51-70.08L168,307.51V328a8.451,8.451,0,0,0,.12,1.34,24,24,0,1,0,15.76,0A8.451,8.451,0,0,0,184,328V304c0-.08-.01-.16-.01-.25l25.46-5.99C214.69,315.12,233.57,328,256,328s41.31-12.88,46.55-30.24l25.46,5.99c0,.09-.01.17-.01.25v24.8A40.069,40.069,0,0,0,296,368,8,8,0,0,0,304,376ZM176,344a8,8,0,1,1-8,8A8.011,8.011,0,0,1,176,344Zm40-88V190.78l40-6.67,40,6.67V256Zm72,16v16c0,13.23-14.36,24-32,24s-32-10.77-32-24V272Zm-88-84.69v51.86A56.2,56.2,0,0,1,184,200V171.31ZM160,136h8v48h-8a8.011,8.011,0,0,1-8-8V144A8.011,8.011,0,0,1,160,136ZM24,132a12.01,12.01,0,0,1,12-12H152v1.38A24.031,24.031,0,0,0,136,144v32a24.032,24.032,0,0,0,24,24h8a72.256,72.256,0,0,0,32,59.87V264a8,8,0,0,0,8,8v9.66L139.85,297.7A87.661,87.661,0,0,0,72,383.36V384H24ZM336,480v8H176v-8ZM209.76,464l4.8-24H296.6l5.4,24ZM488,412a12.01,12.01,0,0,1-12,12H36a12.01,12.01,0,0,1-12-12V400H488Zm0-28H440v-.64a87.661,87.661,0,0,0-67.85-85.66L304,281.66V272a8,8,0,0,0,8-8v-4.13A72.256,72.256,0,0,0,344,200h8a24.032,24.032,0,0,0,24-24V144a24.031,24.031,0,0,0-16-22.62V120H476a12.01,12.01,0,0,1,12,12Z"/><path d="M408,488h-8a8,8,0,0,0,0,16h8a8,8,0,0,0,0-16Z"/></g></svg>
