<?xml version="1.0" encoding="UTF-8"?>
<svg xmlns="http://www.w3.org/2000/svg" width="512" height="512" viewBox="0 0 512 512"><g><path d="M424.04,136h-16a24.025,24.025,0,0,0-24,24v68.57a24.047,24.047,0,0,0-17.7,6.88l-70.63,65.04a24.029,24.029,0,0,0-7.75,17.71l.08,33.8v80.04H272a8,8,0,0,0-8,8v56a8,8,0,0,0,8,8H400a8,8,0,0,0,8-8v-56a8,8,0,0,0-8-8H384.04V414.56a8.073,8.073,0,0,1,2.29-5.62l54.86-55.68a23.922,23.922,0,0,0,6.85-16.79V160A24.032,24.032,0,0,0,424.04,136ZM392,448.04v40H280v-40Zm40.04-111.57a8.009,8.009,0,0,1-2.27,5.59l-54.83,55.65a23.852,23.852,0,0,0-6.9,16.85V432h-64V351.98l-.08-33.82a8.015,8.015,0,0,1,.68-3.22,8.1,8.1,0,0,1,1.9-2.68l70.74-65.15c.09-.07.16-.15.24-.22a8.013,8.013,0,0,1,10.08-1.02,7.9,7.9,0,0,1,1.24,1.02l11.31,11.31a8,8,0,0,1,0,11.31l-50.91,50.91a8,8,0,0,0,11.31,11.32l50.91-50.91a24.009,24.009,0,0,0,0-33.95l-11.31-11.31a1.1,1.1,0,0,1-.11-.1V160a8,8,0,0,1,8-8h16a8.011,8.011,0,0,1,8,8Z"/><path d="M240.04,432.04H224V352.02l.07-33.82a24.018,24.018,0,0,0-7.74-17.7L145.7,235.45a24.023,24.023,0,0,0-17.7-6.88V160a24.032,24.032,0,0,0-24-24H88a24.032,24.032,0,0,0-24,24V336.47a23.9,23.9,0,0,0,6.87,16.81l54.84,55.67a8.075,8.075,0,0,1,2.29,5.61v17.48H112.04a8,8,0,0,0-8,8v56a8,8,0,0,0,8,8h128a8.011,8.011,0,0,0,8-8v-56A8,8,0,0,0,240.04,432.04ZM82.29,342.08A7.981,7.981,0,0,1,80,336.47V160a8.011,8.011,0,0,1,8-8h16a8.011,8.011,0,0,1,8,8v75.47c-.04.03-.08.07-.12.1l-11.31,11.31a24.009,24.009,0,0,0,0,33.95l50.91,50.91a8,8,0,1,0,11.32-11.32l-50.91-50.91a7.979,7.979,0,0,1,0-11.31l11.31-11.31a7.835,7.835,0,0,1,1.23-1.02,8.01,8.01,0,0,1,10.08,1.02c.08.07.16.15.24.22l70.75,65.16a7.968,7.968,0,0,1,2.57,5.89L208,352v80H144V414.56a23.812,23.812,0,0,0-6.9-16.84ZM232.04,488.04h-112v-40h112Z"/><path d="M256,40a48,48,0,1,0,48,48A48.055,48.055,0,0,0,256,40Zm0,80a32,32,0,1,1,32-32A32.036,32.036,0,0,1,256,120Z"/><path d="M390.259,92.982a8,8,0,0,0,0-9.964,249.173,249.173,0,0,0-38.841-37.335C319.694,21.031,286.7,8,256,8s-63.694,13.031-95.418,37.683a249.173,249.173,0,0,0-38.841,37.335,8,8,0,0,0,0,9.964,249.173,249.173,0,0,0,38.841,37.335C192.306,154.969,225.3,168,256,168s63.694-13.031,95.418-37.683A249.173,249.173,0,0,0,390.259,92.982ZM256,152c-34.128,0-65.226-18.537-85.3-34.087A248.777,248.777,0,0,1,138.541,88,248.156,248.156,0,0,1,170.4,58.317C190.545,42.662,221.75,24,256,24c34.128,0,65.226,18.537,85.305,34.087A248.774,248.774,0,0,1,373.459,88,248.156,248.156,0,0,1,341.6,117.683C321.455,133.338,290.25,152,256,152Z"/></g></svg>
