<?xml version="1.0" encoding="UTF-8"?>
<svg xmlns="http://www.w3.org/2000/svg" width="512" height="512" viewBox="0 0 512 512"><g><path d="M292,176H280V156a28.031,28.031,0,0,0-28-28H240V104a8,8,0,0,0-8-8h-8V80a40,40,0,1,0-48,0V96h-8a8,8,0,0,0-8,8v24H148a28.031,28.031,0,0,0-28,28v20H108a28.031,28.031,0,0,0-28,28V496a8,8,0,0,0,8,8H312a8,8,0,0,0,8-8V204A28.031,28.031,0,0,0,292,176ZM200,24a24,24,0,0,1,11.99,44.79A8,8,0,0,0,208,75.72V96H192V75.72a8,8,0,0,0-3.99-6.93A24,24,0,0,1,200,24Zm-24,88h48v16H176Zm-40,44a12.01,12.01,0,0,1,12-12H252a12.01,12.01,0,0,1,12,12v20H136ZM304,488H96V408H304Zm0-96H96V296H304Zm0-112H96V204a12.01,12.01,0,0,1,12-12H292a12.01,12.01,0,0,1,12,12Z"/><path d="M392,112a40,40,0,0,0-24,72V400a8.066,8.066,0,0,0,1.34,4.44L384,426.42V440a8,8,0,0,0,16,0V426.42l14.66-21.98A8.066,8.066,0,0,0,416,400V184a40,40,0,0,0-24-72Zm8,285.58-8,12-8-12V216h16Zm3.99-224.79a8,8,0,0,0-3.99,6.93V200H384V179.72a8,8,0,0,0-3.99-6.93,24,24,0,1,1,23.98,0Z"/></g></svg>
