<svg height="512" viewBox="0 0 512 512" width="512" xmlns="http://www.w3.org/2000/svg"><g><path d="m232 328v16a8 8 0 0 0 8 8h32a8 8 0 0 0 8-8v-16h16a8 8 0 0 0 8-8v-32a8 8 0 0 0 -8-8h-16v-16a8 8 0 0 0 -8-8h-32a8 8 0 0 0 -8 8v16h-16a8 8 0 0 0 -8 8v32a8 8 0 0 0 8 8zm-8-32h16a8 8 0 0 0 8-8v-16h16v16a8 8 0 0 0 8 8h16v16h-16a8 8 0 0 0 -8 8v16h-16v-16a8 8 0 0 0 -8-8h-16z"/><path d="m256 384a80 80 0 1 0 -80-80 80.091 80.091 0 0 0 80 80zm0-144a64 64 0 1 1 -64 64 64.072 64.072 0 0 1 64-64z"/><path d="m256 408a104 104 0 1 0 -104-104 104.118 104.118 0 0 0 104 104zm0-192a88 88 0 1 1 -88 88 88.1 88.1 0 0 1 88-88z"/><path d="m476 128h-124v-68a28.031 28.031 0 0 0 -28-28h-136a28.031 28.031 0 0 0 -28 28v68h-124a28.031 28.031 0 0 0 -28 28v296a28.031 28.031 0 0 0 28 28h440a28.031 28.031 0 0 0 28-28v-296a28.031 28.031 0 0 0 -28-28zm-300-68a12.01 12.01 0 0 1 12-12h136a12.01 12.01 0 0 1 12 12v68h-16v-56a8 8 0 0 0 -8-8h-112a8 8 0 0 0 -8 8v56h-16zm128 20v48h-96v-48zm184 372a12.01 12.01 0 0 1 -12 12h-440a12.01 12.01 0 0 1 -12-12v-296a12.01 12.01 0 0 1 12-12h440a12.01 12.01 0 0 1 12 12z"/><path d="m464 160h-416a8 8 0 0 0 -8 8v272a8 8 0 0 0 8 8h416a8 8 0 0 0 8-8v-272a8 8 0 0 0 -8-8zm-8 272h-400v-256h400z"/></g></svg>