<svg height="512" viewBox="0 0 512 512" width="512" xmlns="http://www.w3.org/2000/svg"><g><path d="m476 64h-440a28.031 28.031 0 0 0 -28 28v296a28.031 28.031 0 0 0 28 28h44v4a28.031 28.031 0 0 0 28 28h296a28.031 28.031 0 0 0 28-28v-4h44a28.031 28.031 0 0 0 28-28v-296a28.031 28.031 0 0 0 -28-28zm-440 336a12.01 12.01 0 0 1 -12-12v-296a12.01 12.01 0 0 1 12-12h332v320zm380 20a12.01 12.01 0 0 1 -12 12h-296a12.01 12.01 0 0 1 -12-12v-4h320zm72-32a12.01 12.01 0 0 1 -12 12h-92v-320h92a12.01 12.01 0 0 1 12 12z"/><path d="m352 344v-240a8 8 0 0 0 -8-8h-296a8 8 0 0 0 -8 8v240a8 8 0 0 0 8 8h296a8 8 0 0 0 8-8zm-16-232v112h-58.234l-14.176-42.53a8 8 0 0 0 -15.351.59l-17.339 69.347-7.31-21.937a8 8 0 0 0 -7.59-5.47h-34.234l-22.176-66.53a8 8 0 0 0 -7.56-5.47h-.03a8 8 0 0 0 -7.57 5.413l-32.5 95.129-8.2-30.612a8 8 0 0 0 -7.73-5.93h-40v-104zm-280 224v-104h33.86l13.412 50.07a8 8 0 0 0 15.3.517l33.336-97.569 16.5 49.512a8 8 0 0 0 7.592 5.47h34.234l14.176 42.53a8 8 0 0 0 7.59 5.47q.155 0 .309-.006a8 8 0 0 0 7.454-6.054l17.337-69.347 7.312 21.937a8 8 0 0 0 7.588 5.47h64v96z"/><path d="m208 360h-56a8 8 0 0 0 0 16h56a8 8 0 0 0 0-16z"/><path d="m240 360h-8a8 8 0 0 0 0 16h8a8 8 0 0 0 0-16z"/><path d="m464 96h-56a8 8 0 0 0 -8 8v56a8 8 0 0 0 8 8h56a8 8 0 0 0 8-8v-56a8 8 0 0 0 -8-8zm-8 56h-40v-40h40z"/><path d="m464 184h-56a8 8 0 0 0 -8 8v56a8 8 0 0 0 8 8h56a8 8 0 0 0 8-8v-56a8 8 0 0 0 -8-8zm-8 56h-40v-40h40z"/><path d="m464 272h-56a8 8 0 0 0 -8 8v56a8 8 0 0 0 8 8h56a8 8 0 0 0 8-8v-56a8 8 0 0 0 -8-8zm-8 56h-40v-40h40z"/></g></svg>