<svg height="512" viewBox="0 0 512 512" width="512" xmlns="http://www.w3.org/2000/svg"><g><path d="m496 480h-16v-160h8a8 8 0 0 0 8-8v-32a8 8 0 0 0 -8-8h-88v-224a8 8 0 0 0 -8-8h-48v-16a8 8 0 0 0 -8-8h-160a8 8 0 0 0 -8 8v16h-48a8 8 0 0 0 -8 8v224h-88a8 8 0 0 0 -8 8v32a8 8 0 0 0 8 8h8v160h-16a8 8 0 0 0 0 16h480a8 8 0 0 0 0-16zm-384 0h-64v-72h48a8 8 0 0 0 8-8v-56a8 8 0 0 0 -8-8h-48v-16h64zm-64-88v-40h40v40zm64-88h-80v-16h80zm72-272h144v8h-144zm168 448h-192v-8h192zm-160-24v-104h56v104zm72 0v-104h56v104zm120 24h-16v-16a8 8 0 0 0 -8-8h-24v-112a8 8 0 0 0 -8-8h-144a8 8 0 0 0 -8 8v112h-24a8 8 0 0 0 -8 8v16h-16v-424h256zm80-88h-40v-40h40zm0-56h-48a8 8 0 0 0 -8 8v56a8 8 0 0 0 8 8h48v72h-64v-160h64zm-64-32v-16h80v16z"/><path d="m232 176v16a8 8 0 0 0 8 8h32a8 8 0 0 0 8-8v-16h16a8 8 0 0 0 8-8v-32a8 8 0 0 0 -8-8h-16v-16a8 8 0 0 0 -8-8h-32a8 8 0 0 0 -8 8v16h-16a8 8 0 0 0 -8 8v32a8 8 0 0 0 8 8zm-8-32h16a8 8 0 0 0 8-8v-16h16v16a8 8 0 0 0 8 8h16v16h-16a8 8 0 0 0 -8 8v16h-16v-16a8 8 0 0 0 -8-8h-16z"/><path d="m256 232a80 80 0 1 0 -80-80 80.091 80.091 0 0 0 80 80zm0-144a64 64 0 1 1 -64 64 64.072 64.072 0 0 1 64-64z"/><path d="m152 312h208a8 8 0 0 0 8-8v-48a8 8 0 0 0 -8-8h-208a8 8 0 0 0 -8 8v48a8 8 0 0 0 8 8zm96-16h-40v-32h40zm16-32h40v32h-40zm88 32h-32v-32h32zm-192-32h32v32h-32z"/></g></svg>