<?xml version="1.0" encoding="UTF-8"?>
<svg xmlns="http://www.w3.org/2000/svg" width="512" height="512" viewBox="0 0 512 512"><g><path d="M280,120h-8V68a28.031,28.031,0,0,0-28-28H220a28.031,28.031,0,0,0-28,28v52h-8a24,24,0,0,0,0,48h8V360a8.081,8.081,0,0,0,.84,3.58L208,393.89V440a24,24,0,0,0,48,0V393.89l15.16-30.31A8.081,8.081,0,0,0,272,360V168h8a24,24,0,0,0,0-48ZM208,68a12.01,12.01,0,0,1,12-12h24a12.01,12.01,0,0,1,12,12v52H208Zm48,116H240a8,8,0,0,0,0,16h16v16H240a8,8,0,0,0,0,16h16v16H240a8,8,0,0,0,0,16h16v16H240a8,8,0,0,0,0,16h16v62.11l-15.16,30.31A8.081,8.081,0,0,0,240,392v48a8,8,0,0,1-16,0V392a8.081,8.081,0,0,0-.84-3.58L208,358.11V168h48Zm24-32H184a8,8,0,0,1,0-16h96a8,8,0,0,1,0,16Z"/><path d="M432,8H320a24,24,0,0,0,0,48V456a48.051,48.051,0,0,0,48,48h16a48.051,48.051,0,0,0,48-48V56a24,24,0,0,0,0-48ZM416,456a32.036,32.036,0,0,1-32,32H368a32.036,32.036,0,0,1-32-32V352h80Zm0-120H336V56h80ZM432,40H320a8,8,0,0,1,0-16H432a8,8,0,0,1,0,16Z"/><path d="M96,128a40,40,0,0,0-24,72V416a8.066,8.066,0,0,0,1.34,4.44L88,442.42V456a8,8,0,0,0,16,0V442.42l14.66-21.98A8.066,8.066,0,0,0,120,416V200a40,40,0,0,0-24-72Zm8,285.58-8,12-8-12V232h16Zm3.99-224.79a8,8,0,0,0-3.99,6.93V216H88V195.72a8,8,0,0,0-3.99-6.93,24,24,0,1,1,23.98,0Z"/></g></svg>
