<svg height="512" viewBox="0 0 512 512" width="512" xmlns="http://www.w3.org/2000/svg"><g><path d="m256 152a8 8 0 0 0 -8 8v176a8 8 0 0 0 16 0v-176a8 8 0 0 0 -8-8z"/><path d="m472.39 222-80.39-7.31v-8.69a8.009 8.009 0 0 0 -3.2-6.4l-104-78a48.242 48.242 0 0 0 -57.6 0l-104 78a8.009 8.009 0 0 0 -3.2 6.4v8.69l-80.39 7.31a32.033 32.033 0 0 0 -31.61 32v32a32.033 32.033 0 0 0 31.61 32l80.39 7.31v8.69a8.005 8.005 0 0 0 5.19 7.49l120.98 45.37a28.033 28.033 0 0 0 19.66 0l120.98-45.37a8.005 8.005 0 0 0 5.19-7.49v-8.69l80.39-7.31a32.033 32.033 0 0 0 31.61-32v-32a32.033 32.033 0 0 0 -31.61-32zm-352.39 87.24-79.28-7.21q-.36-.03-.72-.03a16.021 16.021 0 0 1 -16-16v-32a16.021 16.021 0 0 1 16-16q.36 0 .72-.03l79.28-7.21zm256 19.22-115.79 43.42a12.078 12.078 0 0 1 -8.42 0l-115.79-43.42v-118.46l100.8-75.6a32.161 32.161 0 0 1 38.4 0l100.8 75.6zm112-42.46a16.021 16.021 0 0 1 -16 16q-.36 0-.72.03l-79.28 7.21v-78.48l79.28 7.21q.36.03.72.03a16.021 16.021 0 0 1 16 16z"/><path d="m224 184a8 8 0 0 0 -8 8v96a8 8 0 0 0 16 0v-96a8 8 0 0 0 -8-8z"/><path d="m288 184a8 8 0 0 0 -8 8v96a8 8 0 0 0 16 0v-96a8 8 0 0 0 -8-8z"/></g></svg>