<svg height="512" viewBox="0 0 512 512" width="512" xmlns="http://www.w3.org/2000/svg"><g><path d="m372 8h-232a28.031 28.031 0 0 0 -28 28v440a28.031 28.031 0 0 0 28 28h232a28.031 28.031 0 0 0 28-28v-440a28.031 28.031 0 0 0 -28-28zm-78.25 16-4 16h-67.5l-4-16zm90.25 452a12.01 12.01 0 0 1 -12 12h-232a12.01 12.01 0 0 1 -12-12v-440a12.01 12.01 0 0 1 12-12h61.75l6.49 25.94a8 8 0 0 0 7.76 6.06h80a8 8 0 0 0 7.76-6.06l6.49-25.94h61.75a12.01 12.01 0 0 1 12 12z"/><path d="m232 176v16a8 8 0 0 0 8 8h32a8 8 0 0 0 8-8v-16h16a8 8 0 0 0 8-8v-32a8 8 0 0 0 -8-8h-16v-16a8 8 0 0 0 -8-8h-32a8 8 0 0 0 -8 8v16h-16a8 8 0 0 0 -8 8v32a8 8 0 0 0 8 8zm-8-32h16a8 8 0 0 0 8-8v-16h16v16a8 8 0 0 0 8 8h16v16h-16a8 8 0 0 0 -8 8v16h-16v-16a8 8 0 0 0 -8-8h-16z"/><path d="m256 232a80 80 0 1 0 -80-80 80.091 80.091 0 0 0 80 80zm0-144a64 64 0 1 1 -64 64 64.072 64.072 0 0 1 64-64z"/><path d="m352 248h-192a8 8 0 0 0 -8 8v32a8 8 0 0 0 8 8h192a8 8 0 0 0 8-8v-32a8 8 0 0 0 -8-8zm-8 32h-176v-16h176z"/><path d="m352 424h-192a8 8 0 0 0 -8 8v32a8 8 0 0 0 8 8h192a8 8 0 0 0 8-8v-32a8 8 0 0 0 -8-8zm-8 32h-176v-16h176z"/><path d="m312 328a8 8 0 0 0 0-16h-112a8 8 0 0 0 0 16z"/><path d="m352 344h-192a8 8 0 0 0 0 16h192a8 8 0 0 0 0-16z"/><path d="m312 392a8 8 0 0 0 0-16h-112a8 8 0 0 0 0 16z"/></g></svg>