<svg height="512" viewBox="0 0 512 512" width="512" xmlns="http://www.w3.org/2000/svg"><g><path d="m333.88 10.57a8.016 8.016 0 0 0 -5.88-2.57h-288a7.985 7.985 0 0 0 -7.97 8.64l30.52 381.59a28.154 28.154 0 0 0 27.91 25.77h21.54v52a28.031 28.031 0 0 0 28 28h88a28.031 28.031 0 0 0 28-28v-52h21.54a28.154 28.154 0 0 0 27.91-25.77l30.52-381.59a8.01 8.01 0 0 0 -2.09-6.07zm-93.88 465.43a12.01 12.01 0 0 1 -12 12h-88a12.01 12.01 0 0 1 -12-12v-4h112zm0-20h-112v-32h112zm49.5-59.04a12.065 12.065 0 0 1 -11.96 11.04h-187.08a12.065 12.065 0 0 1 -11.96-11.04l-4.87-60.96h220.74zm6.15-76.96h-223.3l-15.36-192h254.02zm16.64-208h-256.58l-7.04-88h270.66z"/><path d="m224 200h-16v-16a8 8 0 0 0 -8-8h-32a8 8 0 0 0 -8 8v16h-16a8 8 0 0 0 -8 8v32a8 8 0 0 0 8 8h16v16a8 8 0 0 0 8 8h32a8 8 0 0 0 8-8v-16h16a8 8 0 0 0 8-8v-32a8 8 0 0 0 -8-8zm-8 32h-16a8 8 0 0 0 -8 8v16h-16v-16a8 8 0 0 0 -8-8h-16v-16h16a8 8 0 0 0 8-8v-16h16v16a8 8 0 0 0 8 8h16z"/><path d="m184 144a80 80 0 1 0 80 80 80.091 80.091 0 0 0 -80-80zm0 144a64 64 0 1 1 64-64 64.072 64.072 0 0 1 -64 64z"/><path d="m452 296h-12v-36a28.031 28.031 0 0 0 -28-28h-8a28.031 28.031 0 0 0 -28 28v36h-12a28.031 28.031 0 0 0 -28 28v152a28.031 28.031 0 0 0 28 28h88a28.031 28.031 0 0 0 28-28v-152a28.031 28.031 0 0 0 -28-28zm-60-36a12.01 12.01 0 0 1 12-12h8a12.01 12.01 0 0 1 12 12v36h-32zm72 216a12.01 12.01 0 0 1 -12 12h-88a12.01 12.01 0 0 1 -12-12v-28h112zm0-44h-112v-64h112zm0-80h-112v-28a12.01 12.01 0 0 1 12-12h88a12.01 12.01 0 0 1 12 12z"/></g></svg>