<svg height="512" viewBox="0 0 512 512" width="512" xmlns="http://www.w3.org/2000/svg"><g><path d="m431.36 80.64a248 248 0 1 0 -350.72 350.72 248 248 0 1 0 350.72-350.72zm-11.31 339.41a232 232 0 0 1 -328.1-328.1 232 232 0 0 1 328.1 328.1z"/><path d="m256 48c-114.69 0-208 93.31-208 208s93.31 208 208 208 208-93.31 208-208-93.31-208-208-208zm0 400c-105.87 0-192-86.13-192-192s86.13-192 192-192 192 86.13 192 192-86.13 192-192 192z"/><path d="m280 200h-32.58a55.66 55.66 0 0 0 -10.59-25.52l11.74-11.73a8 8 0 0 0 -11.32-11.32l-11.73 11.74a55.66 55.66 0 0 0 -25.52-10.59v-32.58a8 8 0 0 0 -16 0v32.58a55.66 55.66 0 0 0 -25.52 10.59l-11.73-11.74a8 8 0 0 0 -11.32 11.32l11.74 11.73a55.66 55.66 0 0 0 -10.59 25.52h-32.58a8 8 0 0 0 0 16h32.58a55.66 55.66 0 0 0 10.59 25.52l-11.74 11.73a8 8 0 0 0 11.32 11.32l11.73-11.74a55.66 55.66 0 0 0 25.52 10.59v32.58a8 8 0 0 0 16 0v-32.58a55.66 55.66 0 0 0 25.52-10.59l11.73 11.74a8 8 0 0 0 11.32-11.32l-11.74-11.73a55.66 55.66 0 0 0 10.59-25.52h32.58a8 8 0 0 0 0-16zm-88 48a40 40 0 1 1 40-40 40.04 40.04 0 0 1 -40 40z"/><path d="m368 312h-17.01a32.031 32.031 0 0 0 -3.43-8.24l12.04-12.04a8 8 0 0 0 -11.32-11.32l-12.04 12.04a32.031 32.031 0 0 0 -8.24-3.43v-17.01a8 8 0 0 0 -16 0v17.01a32.031 32.031 0 0 0 -8.24 3.43l-12.04-12.04a8 8 0 0 0 -11.32 11.32l12.04 12.04a32.031 32.031 0 0 0 -3.43 8.24h-17.01a8 8 0 0 0 0 16h17.01a32.031 32.031 0 0 0 3.43 8.24l-12.04 12.04a8 8 0 0 0 11.32 11.32l12.04-12.04a32.031 32.031 0 0 0 8.24 3.43v17.01a8 8 0 0 0 16 0v-17.01a32.031 32.031 0 0 0 8.24-3.43l12.04 12.04a8 8 0 0 0 11.32-11.32l-12.04-12.04a32.031 32.031 0 0 0 3.43-8.24h17.01a8 8 0 0 0 0-16zm-48 24a16 16 0 1 1 16-16 16.021 16.021 0 0 1 -16 16z"/><path d="m144 320a24 24 0 1 0 24 24 24.028 24.028 0 0 0 -24-24zm0 32a8 8 0 1 1 8-8 8.009 8.009 0 0 1 -8 8z"/><path d="m224 368a24 24 0 1 0 24 24 24.028 24.028 0 0 0 -24-24zm0 32a8 8 0 1 1 8-8 8.009 8.009 0 0 1 -8 8z"/><path d="m312 152a24 24 0 1 0 -24-24 24.028 24.028 0 0 0 24 24zm0-32a8 8 0 1 1 -8 8 8.009 8.009 0 0 1 8-8z"/><circle cx="376" cy="216" r="8"/><circle cx="272" cy="424" r="8"/></g></svg>