<svg height="512" viewBox="0 0 512 512" width="512" xmlns="http://www.w3.org/2000/svg"><g><path d="m372.15 305.7-68.15-16.04v-1.66h16a48.051 48.051 0 0 0 48-48v-120a112 112 0 0 0 -224 0v120a48.051 48.051 0 0 0 48 48h16v1.66l-68.15 16.04a87.661 87.661 0 0 0 -67.85 85.66v104.64a8 8 0 0 0 8 8h352a8 8 0 0 0 8-8v-104.64a87.661 87.661 0 0 0 -67.85-85.66zm-180.15-33.7a32.042 32.042 0 0 1 -32-32v-120a96 96 0 0 1 192 0v120a32.042 32.042 0 0 1 -32 32zm56 216h-112v-48a8 8 0 0 0 -16 0v48h-32v-96.64a71.71 71.71 0 0 1 55.51-70.08l65.94-15.52c4.6 15.25 19.73 27.04 38.55 29.68zm-24-192v-8h64v8c0 13.23-14.36 24-32 24s-32-10.77-32-24zm200 192h-32v-48a8 8 0 0 0 -16 0v48h-112v-152.56c18.82-2.64 33.95-14.43 38.55-29.68l65.94 15.52a71.71 71.71 0 0 1 55.51 70.08z"/><path d="m368 384h-16v-16a8 8 0 0 0 -8-8h-32a8 8 0 0 0 -8 8v16h-16a8 8 0 0 0 -8 8v32a8 8 0 0 0 8 8h16v16a8 8 0 0 0 8 8h32a8 8 0 0 0 8-8v-16h16a8 8 0 0 0 8-8v-32a8 8 0 0 0 -8-8zm-8 32h-16a8 8 0 0 0 -8 8v16h-16v-16a8 8 0 0 0 -8-8h-16v-16h16a8 8 0 0 0 8-8v-16h16v16a8 8 0 0 0 8 8h16z"/><path d="m336 228v-104a28.032 28.032 0 0 0 -28-28h-104a28.032 28.032 0 0 0 -28 28v104a28.032 28.032 0 0 0 28 28h104a28.032 28.032 0 0 0 28-28zm-16 0a12.013 12.013 0 0 1 -12 12h-104a12.013 12.013 0 0 1 -12-12v-104a12.013 12.013 0 0 1 12-12h104a12.013 12.013 0 0 1 12 12z"/><path d="m208 120a8 8 0 0 0 -8 8v64a8 8 0 0 0 16 0v-64a8 8 0 0 0 -8-8z"/><path d="m208 208a8 8 0 0 0 -8 8v8a8 8 0 0 0 16 0v-8a8 8 0 0 0 -8-8z"/></g></svg>